<svg width="754" height="759" viewBox="0 0 754 759" fill="none" xmlns="http://www.w3.org/2000/svg">
<path fill-rule="evenodd" clip-rule="evenodd" d="M604.093 176.233C640.666 247.068 597.079 332.965 555.796 401.164C520.537 459.411 454.55 480.407 397.485 517.548C314.423 571.611 248.04 687.993 151.865 664.07C55.5532 640.113 17.8763 517.532 2.96117 419.413C-9.17161 339.598 34.2999 265.633 81.3225 200.008C117.12 150.049 171.74 123.22 229.748 102.91C284.021 83.9083 338.766 79.0603 395.197 90.1133C472.034 105.163 568.172 106.661 604.093 176.233Z" fill="#D8B08C"/>
<circle cx="394.686" cy="411.183" r="345.708" fill="#D2E8E3" stroke="#EC2E35" stroke-width="2.71997"/>
<path d="M179.461 254.335C179.461 254.335 262.657 126.507 370.775 116.636C478.893 106.764 541.941 211.536 571.818 274.017C601.695 336.498 676.237 440.602 667.446 535.927C658.656 631.252 572.474 703.58 449.016 671.805C325.559 640.03 289.765 627.973 233.516 652.087C177.268 676.2 104.215 640.03 102.758 503.059C101.301 366.088 179.461 254.335 179.461 254.335Z" fill="#92E3A9"/>
<path opacity="0.7" d="M179.461 254.335C179.461 254.335 262.657 126.507 370.775 116.636C478.893 106.764 541.941 211.536 571.818 274.017C601.695 336.498 676.237 440.602 667.446 535.927C658.656 631.252 572.474 703.58 449.016 671.805C325.559 640.03 289.765 627.973 233.516 652.087C177.268 676.2 104.215 640.03 102.758 503.059C101.301 366.088 179.461 254.335 179.461 254.335Z" fill="#FFCB9A"/>
<path d="M628.544 435.891L617.868 589.241" stroke="#263238" stroke-width="2.02362" stroke-miterlimit="10"/>
<path d="M619.592 559.895L624.424 552.233" stroke="#263238" stroke-width="2.02362" stroke-miterlimit="10"/>
<path d="M622.959 554.528C622.969 553.355 623.146 552.199 623.478 551.137C623.81 550.075 624.29 549.132 624.886 548.372C626.124 546.709 632.656 542.592 633.28 546.041C633.951 549.793 627.265 557.175 622.959 554.528Z" fill="#92E3A9" stroke="#263238" stroke-width="1.01181" stroke-miterlimit="10"/>
<path d="M622.959 554.528L629.176 548.712" stroke="#263238" stroke-width="0.505906" stroke-miterlimit="10"/>
<path d="M618.378 577.342L623.21 569.681" stroke="#263238" stroke-width="2.02362" stroke-miterlimit="10"/>
<path d="M621.745 571.976C621.754 570.803 621.931 569.646 622.263 568.584C622.595 567.522 623.076 566.58 623.671 565.82C624.91 564.156 631.442 560.028 632.065 563.476C632.737 567.24 626.051 574.61 621.745 571.976Z" fill="#92E3A9" stroke="#263238" stroke-width="1.01181" stroke-miterlimit="10"/>
<path d="M621.745 571.976L627.962 566.16" stroke="#263238" stroke-width="0.505906" stroke-miterlimit="10"/>
<path d="M622.554 517.338L627.387 509.676" stroke="#263238" stroke-width="2.02362" stroke-miterlimit="10"/>
<path d="M625.922 511.971C625.931 510.799 626.107 509.644 626.438 508.583C626.769 507.521 627.247 506.578 627.84 505.815C629.086 504.152 635.619 500.024 636.242 503.484C636.898 507.236 630.228 514.606 625.922 511.971Z" fill="#92E3A9" stroke="#263238" stroke-width="1.01181" stroke-miterlimit="10"/>
<path d="M625.922 511.971L632.138 506.155" stroke="#263238" stroke-width="0.505906" stroke-miterlimit="10"/>
<path d="M621.34 534.773L626.173 527.112" stroke="#263238" stroke-width="2.02362" stroke-miterlimit="10"/>
<path d="M624.708 529.407C624.717 528.234 624.894 527.078 625.226 526.016C625.559 524.954 626.039 524.011 626.634 523.251C627.872 521.587 634.405 517.471 635.028 520.92C635.7 524.671 629.014 532.054 624.708 529.407Z" fill="#92E3A9" stroke="#263238" stroke-width="1.01181" stroke-miterlimit="10"/>
<path d="M624.707 529.407L630.924 523.591" stroke="#263238" stroke-width="0.505906" stroke-miterlimit="10"/>
<path d="M624.521 488.999L629.362 481.337" stroke="#263238" stroke-width="2.02362" stroke-miterlimit="10"/>
<path d="M627.889 483.632C627.898 482.459 628.075 481.303 628.408 480.241C628.74 479.18 629.22 478.237 629.815 477.476C631.054 475.825 637.594 471.697 638.209 475.145C638.889 478.958 632.195 486.243 627.889 483.632Z" fill="#92E3A9" stroke="#263238" stroke-width="1.01181" stroke-miterlimit="10"/>
<path d="M627.889 483.632L634.114 477.816" stroke="#263238" stroke-width="0.505906" stroke-miterlimit="10"/>
<path d="M626.505 460.551L631.337 452.889" stroke="#263238" stroke-width="2.02362" stroke-miterlimit="10"/>
<path d="M629.872 455.184C629.882 454.011 630.059 452.855 630.391 451.793C630.723 450.732 631.203 449.789 631.798 449.028C633.037 447.365 639.569 443.237 640.192 446.697C640.864 450.449 634.178 457.819 629.872 455.184Z" fill="#92E3A9" stroke="#263238" stroke-width="1.01181" stroke-miterlimit="10"/>
<path d="M629.872 455.184L636.088 449.368" stroke="#263238" stroke-width="0.505906" stroke-miterlimit="10"/>
<path d="M620.401 549.574L616.726 540.577" stroke="#263238" stroke-width="2.02362" stroke-miterlimit="10"/>
<path d="M617.844 543.309C617.997 542.159 617.984 540.973 617.805 539.831C617.627 538.69 617.286 537.619 616.808 536.692C615.828 534.676 610 528.617 608.915 531.835C607.758 535.247 613.27 544.523 617.844 543.309Z" fill="#92E3A9" stroke="#263238" stroke-width="1.01181" stroke-miterlimit="10"/>
<path d="M617.844 543.285L612.242 535.247" stroke="#263238" stroke-width="0.505906" stroke-miterlimit="10"/>
<path d="M623.599 503.678L619.916 494.681" stroke="#263238" stroke-width="2.02362" stroke-miterlimit="10"/>
<path d="M621.041 497.389C621.192 496.239 621.178 495.053 620.999 493.912C620.821 492.771 620.482 491.7 620.005 490.772C619.017 488.756 613.189 482.697 612.113 485.915C610.931 489.351 616.459 498.627 621.041 497.389Z" fill="#92E3A9" stroke="#263238" stroke-width="1.01181" stroke-miterlimit="10"/>
<path d="M621.041 497.389L615.439 489.351" stroke="#263238" stroke-width="0.505906" stroke-miterlimit="10"/>
<path d="M624.999 483.511L621.324 474.514" stroke="#263238" stroke-width="2.02362" stroke-miterlimit="10"/>
<path d="M622.441 477.209C622.595 476.059 622.582 474.873 622.403 473.732C622.224 472.59 621.884 471.519 621.405 470.592C620.418 468.589 614.598 462.53 613.513 465.735C612.339 469.172 617.868 478.46 622.441 477.209Z" fill="#92E3A9" stroke="#263238" stroke-width="1.01181" stroke-miterlimit="10"/>
<path d="M622.441 477.209L616.84 469.184" stroke="#263238" stroke-width="0.505906" stroke-miterlimit="10"/>
<path d="M627.055 453.946L623.38 444.949" stroke="#263238" stroke-width="2.02362" stroke-miterlimit="10"/>
<path d="M624.497 447.644C624.65 446.494 624.637 445.308 624.459 444.167C624.28 443.025 623.94 441.954 623.461 441.027C622.481 439.011 616.653 432.953 615.569 436.17C614.395 439.606 619.899 448.895 624.497 447.644Z" fill="#92E3A9" stroke="#263238" stroke-width="1.01181" stroke-miterlimit="10"/>
<path d="M624.497 447.644L618.896 439.618" stroke="#263238" stroke-width="0.505906" stroke-miterlimit="10"/>
<path d="M628.633 435.029C628.785 433.879 628.771 432.693 628.592 431.552C628.413 430.411 628.074 429.34 627.597 428.411C626.61 426.408 620.782 420.349 619.697 423.555C618.523 426.991 624.052 436.279 628.633 435.029Z" fill="#92E3A9" stroke="#263238" stroke-width="1.01181" stroke-miterlimit="10"/>
<path d="M628.634 435.029L623.032 427.003" stroke="#263238" stroke-width="0.505906" stroke-miterlimit="10"/>
<path d="M628.301 435.381C629.081 435.488 629.866 435.343 630.605 434.956C631.344 434.568 632.018 433.947 632.583 433.135C633.814 431.459 637.221 422.134 635.012 420.847C632.575 419.463 626.998 428.679 628.301 435.381Z" fill="#92E3A9" stroke="#263238" stroke-width="1.01181" stroke-miterlimit="10"/>
<path d="M628.302 435.381L633.045 426.178" stroke="#263238" stroke-width="0.505906" stroke-miterlimit="10"/>
<path d="M600.4 457.006L611.012 610.38" stroke="#263238" stroke-width="2.02362" stroke-miterlimit="10"/>
<path d="M608.664 581.131L612.347 572.134" stroke="#263238" stroke-width="2.02362" stroke-miterlimit="10"/>
<path d="M611.222 574.877C611.071 573.727 611.085 572.542 611.263 571.401C611.442 570.26 611.781 569.189 612.258 568.26C613.246 566.257 619.074 560.198 620.158 563.403C621.332 566.803 615.795 576.092 611.222 574.877Z" fill="#92E3A9" stroke="#263238" stroke-width="1.01181" stroke-miterlimit="10"/>
<path d="M611.222 574.829L616.508 567.216" stroke="#263238" stroke-width="0.505906" stroke-miterlimit="10"/>
<path d="M605.718 538.562L609.401 529.565" stroke="#263238" stroke-width="2.02362" stroke-miterlimit="10"/>
<path d="M608.276 532.272C608.124 531.122 608.139 529.937 608.317 528.796C608.496 527.654 608.835 526.584 609.312 525.655C610.299 523.639 616.127 517.593 617.212 520.798C618.386 524.234 612.857 533.523 608.276 532.272Z" fill="#92E3A9" stroke="#263238" stroke-width="1.01181" stroke-miterlimit="10"/>
<path d="M608.276 532.272L613.57 524.659" stroke="#263238" stroke-width="0.505906" stroke-miterlimit="10"/>
<path d="M606.924 556.009L610.607 547.012" stroke="#263238" stroke-width="2.02362" stroke-miterlimit="10"/>
<path d="M609.482 549.708C609.33 548.558 609.344 547.372 609.523 546.231C609.702 545.09 610.041 544.019 610.518 543.09C611.505 541.087 617.333 535.028 618.418 538.234C619.592 541.682 614.063 550.958 609.482 549.708Z" fill="#92E3A9" stroke="#263238" stroke-width="1.01181" stroke-miterlimit="10"/>
<path d="M609.482 549.708L614.776 542.095" stroke="#263238" stroke-width="0.505906" stroke-miterlimit="10"/>
<path d="M603.759 510.223L607.442 501.238" stroke="#263238" stroke-width="2.02362" stroke-miterlimit="10"/>
<path d="M606.317 503.933C606.166 502.783 606.18 501.598 606.358 500.457C606.537 499.315 606.876 498.245 607.353 497.316C608.341 495.3 614.169 489.254 615.253 492.459C616.427 495.956 610.89 505.184 606.317 503.933Z" fill="#92E3A9" stroke="#263238" stroke-width="1.01181" stroke-miterlimit="10"/>
<path d="M606.317 503.933L611.603 496.32" stroke="#263238" stroke-width="0.505906" stroke-miterlimit="10"/>
<path d="M601.792 481.775L605.467 472.778" stroke="#263238" stroke-width="2.02362" stroke-miterlimit="10"/>
<path d="M604.35 475.473C604.196 474.323 604.209 473.137 604.388 471.995C604.567 470.854 604.907 469.783 605.386 468.856C606.373 466.852 612.201 460.794 613.286 463.999C614.46 467.447 608.923 476.724 604.35 475.473Z" fill="#92E3A9" stroke="#263238" stroke-width="1.01181" stroke-miterlimit="10"/>
<path d="M604.35 475.473L609.635 467.86" stroke="#263238" stroke-width="0.505906" stroke-miterlimit="10"/>
<path d="M608.041 570.774L603.209 563.112" stroke="#263238" stroke-width="2.02362" stroke-miterlimit="10"/>
<path d="M604.674 565.407C604.667 564.235 604.492 563.078 604.161 562.016C603.83 560.954 603.35 560.011 602.755 559.251C601.509 557.588 594.976 553.46 594.361 556.908C593.681 560.66 600.367 568.042 604.674 565.407Z" fill="#92E3A9" stroke="#263238" stroke-width="1.01181" stroke-miterlimit="10"/>
<path d="M604.674 565.407L598.093 559.275" stroke="#263238" stroke-width="0.505906" stroke-miterlimit="10"/>
<path d="M604.868 524.878L600.035 517.204" stroke="#263238" stroke-width="2.02362" stroke-miterlimit="10"/>
<path d="M601.5 519.499C601.491 518.326 601.314 517.17 600.981 516.108C600.649 515.046 600.169 514.104 599.574 513.343C598.335 511.68 591.803 507.551 591.18 511.012C590.508 514.764 597.194 522.134 601.5 519.499Z" fill="#92E3A9" stroke="#263238" stroke-width="1.01181" stroke-miterlimit="10"/>
<path d="M601.5 519.499L594.92 513.38" stroke="#263238" stroke-width="0.505906" stroke-miterlimit="10"/>
<path d="M603.468 504.698L598.635 497.037" stroke="#263238" stroke-width="2.02362" stroke-miterlimit="10"/>
<path d="M600.108 499.332C600.098 498.159 599.922 497.003 599.589 495.941C599.257 494.879 598.777 493.936 598.182 493.176C596.943 491.512 590.411 487.384 589.788 490.832C589.14 494.584 595.794 502.027 600.108 499.332Z" fill="#92E3A9" stroke="#263238" stroke-width="1.01181" stroke-miterlimit="10"/>
<path d="M600.108 499.332L593.519 493.2" stroke="#263238" stroke-width="0.505906" stroke-miterlimit="10"/>
<path d="M601.428 475.133L596.587 467.459" stroke="#263238" stroke-width="2.02362" stroke-miterlimit="10"/>
<path d="M598.044 469.766C598.035 468.593 597.858 467.437 597.526 466.375C597.194 465.313 596.713 464.371 596.118 463.611C594.879 461.935 588.347 457.807 587.724 461.267C587.068 465.019 593.754 472.401 598.044 469.766Z" fill="#92E3A9" stroke="#263238" stroke-width="1.01181" stroke-miterlimit="10"/>
<path d="M598.06 469.766L591.471 463.635" stroke="#263238" stroke-width="0.505906" stroke-miterlimit="10"/>
<path d="M600.368 456.143C600.358 454.972 600.182 453.817 599.851 452.755C599.52 451.694 599.042 450.75 598.449 449.988C597.203 448.324 590.67 444.196 590.055 447.644C589.375 451.396 596.061 458.778 600.368 456.143Z" fill="#92E3A9" stroke="#263238" stroke-width="1.01181" stroke-miterlimit="10"/>
<path d="M600.368 456.143L593.787 450.012" stroke="#263238" stroke-width="0.505906" stroke-miterlimit="10"/>
<path d="M600.1 456.58C600.876 456.444 601.623 456.061 602.292 455.456C602.961 454.85 603.535 454.037 603.977 453.071C604.949 451.044 607.005 440.869 604.649 440.298C602.091 439.691 597.898 450.437 600.1 456.58Z" fill="#92E3A9" stroke="#263238" stroke-width="1.01181" stroke-miterlimit="10"/>
<path d="M600.1 456.58L603.476 446.126" stroke="#263238" stroke-width="0.505906" stroke-miterlimit="10"/>
<path d="M612.558 394.548V588.501" stroke="#263238" stroke-width="2.02362" stroke-miterlimit="10"/>
<path d="M612.452 559.336L616.734 550.958" stroke="#263238" stroke-width="2.02362" stroke-miterlimit="10"/>
<path d="M615.431 553.472C615.36 552.304 615.456 551.126 615.712 550.018C615.969 548.91 616.381 547.898 616.921 547.049C618.038 545.203 624.254 540.091 625.112 543.406C626.043 547.049 619.9 555.451 615.431 553.472Z" fill="#92E3A9" stroke="#263238" stroke-width="1.01181" stroke-miterlimit="10"/>
<path d="M615.431 553.472L621.219 546.721" stroke="#263238" stroke-width="0.505906" stroke-miterlimit="10"/>
<path d="M612.452 522.886L616.734 514.521" stroke="#263238" stroke-width="2.02362" stroke-miterlimit="10"/>
<path d="M615.431 517.022C615.36 515.856 615.456 514.68 615.713 513.574C615.97 512.468 616.382 511.458 616.921 510.611C618.038 508.753 624.254 503.642 625.112 506.969C626.043 510.611 619.9 519.025 615.431 517.022Z" fill="#92E3A9" stroke="#263238" stroke-width="1.01181" stroke-miterlimit="10"/>
<path d="M615.431 517.022L621.219 510.271" stroke="#263238" stroke-width="0.505906" stroke-miterlimit="10"/>
<path d="M612.452 480.099L616.734 471.721" stroke="#263238" stroke-width="2.02362" stroke-miterlimit="10"/>
<path d="M615.431 474.234C615.36 473.066 615.456 471.889 615.712 470.781C615.969 469.673 616.381 468.661 616.921 467.812C618.038 465.966 624.254 460.854 625.112 464.169C626.043 467.812 619.9 476.189 615.431 474.234Z" fill="#92E3A9" stroke="#263238" stroke-width="1.01181" stroke-miterlimit="10"/>
<path d="M615.431 474.235L621.219 467.484" stroke="#263238" stroke-width="0.505906" stroke-miterlimit="10"/>
<path d="M612.452 451.614L616.734 443.237" stroke="#263238" stroke-width="2.02362" stroke-miterlimit="10"/>
<path d="M615.431 445.75C615.36 444.582 615.456 443.404 615.712 442.297C615.969 441.189 616.381 440.176 616.921 439.327C618.038 437.481 624.254 432.358 625.112 435.684C626.043 439.327 619.9 447.705 615.431 445.75Z" fill="#92E3A9" stroke="#263238" stroke-width="1.01181" stroke-miterlimit="10"/>
<path d="M615.431 445.75L621.219 438.999" stroke="#263238" stroke-width="0.505906" stroke-miterlimit="10"/>
<path d="M612.452 422.996L616.734 414.631" stroke="#263238" stroke-width="2.02362" stroke-miterlimit="10"/>
<path d="M615.431 417.144C615.36 415.976 615.456 414.798 615.712 413.691C615.969 412.583 616.381 411.57 616.921 410.721C618.038 408.875 624.254 403.752 625.112 407.078C626.043 410.721 619.9 419.099 615.431 417.144Z" fill="#92E3A9" stroke="#263238" stroke-width="1.01181" stroke-miterlimit="10"/>
<path d="M615.431 417.144L621.219 410.393" stroke="#263238" stroke-width="0.505906" stroke-miterlimit="10"/>
<path d="M612.55 570.47L608.268 562.092" stroke="#263238" stroke-width="2.02362" stroke-miterlimit="10"/>
<path d="M609.571 564.606C609.643 563.438 609.547 562.26 609.29 561.152C609.033 560.044 608.621 559.032 608.082 558.183C606.964 556.337 600.748 551.213 599.89 554.54C598.959 558.183 605.103 566.56 609.571 564.606Z" fill="#92E3A9" stroke="#263238" stroke-width="1.01181" stroke-miterlimit="10"/>
<path d="M609.571 564.606L603.443 557.49" stroke="#263238" stroke-width="0.505906" stroke-miterlimit="10"/>
<path d="M612.55 512.505L608.268 504.127" stroke="#263238" stroke-width="2.02362" stroke-miterlimit="10"/>
<path d="M609.571 506.641C609.643 505.473 609.547 504.295 609.29 503.188C609.033 502.08 608.621 501.067 608.082 500.218C606.964 498.372 600.748 493.249 599.89 496.575C598.959 500.218 605.103 508.596 609.571 506.641Z" fill="#92E3A9" stroke="#263238" stroke-width="1.01181" stroke-miterlimit="10"/>
<path d="M609.571 506.641L603.443 499.526" stroke="#263238" stroke-width="0.505906" stroke-miterlimit="10"/>
<path d="M612.55 483.887L608.268 475.509" stroke="#263238" stroke-width="2.02362" stroke-miterlimit="10"/>
<path d="M609.571 478.023C609.643 476.855 609.547 475.677 609.29 474.569C609.033 473.462 608.621 472.449 608.082 471.6C606.964 469.754 600.748 464.643 599.89 467.957C598.959 471.6 605.103 479.978 609.571 478.023Z" fill="#92E3A9" stroke="#263238" stroke-width="1.01181" stroke-miterlimit="10"/>
<path d="M609.571 478.023L603.443 470.908" stroke="#263238" stroke-width="0.505906" stroke-miterlimit="10"/>
<path d="M612.55 446.078L608.268 437.7" stroke="#263238" stroke-width="2.02362" stroke-miterlimit="10"/>
<path d="M609.571 440.213C609.643 439.045 609.547 437.868 609.29 436.76C609.033 435.652 608.621 434.64 608.082 433.79C606.964 431.945 600.748 426.821 599.89 430.148C598.959 433.79 605.103 442.168 609.571 440.213Z" fill="#92E3A9" stroke="#263238" stroke-width="1.01181" stroke-miterlimit="10"/>
<path d="M609.571 440.213L603.443 433.098" stroke="#263238" stroke-width="0.505906" stroke-miterlimit="10"/>
<path d="M612.55 416.343L608.268 407.965" stroke="#263238" stroke-width="2.02362" stroke-miterlimit="10"/>
<path d="M609.571 410.478C609.643 409.31 609.547 408.133 609.29 407.025C609.033 405.917 608.621 404.904 608.082 404.055C606.964 402.21 600.748 397.098 599.89 400.413C598.959 404.055 605.103 412.433 609.571 410.478Z" fill="#92E3A9" stroke="#263238" stroke-width="1.01181" stroke-miterlimit="10"/>
<path d="M609.571 410.478L603.443 403.363" stroke="#263238" stroke-width="0.505906" stroke-miterlimit="10"/>
<path d="M612.801 397.292C612.873 396.125 612.778 394.948 612.522 393.841C612.267 392.733 611.857 391.72 611.319 390.869C610.194 389.024 603.986 383.912 603.128 387.227C602.197 390.869 608.341 399.247 612.801 397.292Z" fill="#92E3A9" stroke="#263238" stroke-width="1.01181" stroke-miterlimit="10"/>
<path d="M612.8 397.292L606.681 390.177" stroke="#263238" stroke-width="0.505906" stroke-miterlimit="10"/>
<path d="M612.509 397.693C613.291 397.678 614.061 397.41 614.767 396.91C615.474 396.409 616.101 395.687 616.605 394.791C617.714 392.933 620.458 383.123 618.151 382.2C615.65 381.192 610.745 391.234 612.509 397.693Z" fill="#92E3A9" stroke="#263238" stroke-width="1.01181" stroke-miterlimit="10"/>
<path d="M612.509 397.693L616.581 387.81" stroke="#263238" stroke-width="0.505906" stroke-miterlimit="10"/>
<path d="M607.239 638.804H620.927L622.643 586.922H605.523L607.239 638.804Z" fill="#263238" stroke="#263238" stroke-width="1.01181" stroke-miterlimit="10"/>
<path d="M169.756 435.891L159.088 589.241" stroke="#263238" stroke-width="2.02362" stroke-miterlimit="10"/>
<path d="M160.804 559.895L165.644 552.233" stroke="#263238" stroke-width="2.02362" stroke-miterlimit="10"/>
<path d="M164.179 554.528C164.189 553.355 164.366 552.199 164.698 551.137C165.03 550.075 165.51 549.132 166.106 548.372C167.344 546.709 173.884 542.592 174.5 546.041C175.171 549.793 168.477 557.175 164.179 554.528Z" fill="#92E3A9" stroke="#263238" stroke-width="1.01181" stroke-miterlimit="10"/>
<path d="M164.171 554.528L170.396 548.712" stroke="#263238" stroke-width="0.505906" stroke-miterlimit="10"/>
<path d="M159.59 577.342L164.43 569.681" stroke="#263238" stroke-width="2.02362" stroke-miterlimit="10"/>
<path d="M162.957 571.976C162.966 570.803 163.143 569.646 163.475 568.584C163.807 567.522 164.288 566.58 164.883 565.82C166.13 564.156 172.662 560.028 173.277 563.476C173.957 567.24 167.263 574.61 162.957 571.976Z" fill="#92E3A9" stroke="#263238" stroke-width="1.01181" stroke-miterlimit="10"/>
<path d="M162.957 571.976L169.181 566.16" stroke="#263238" stroke-width="0.505906" stroke-miterlimit="10"/>
<path d="M163.766 517.338L168.607 509.676" stroke="#263238" stroke-width="2.02362" stroke-miterlimit="10"/>
<path d="M167.133 511.971C167.143 510.798 167.32 509.642 167.652 508.58C167.985 507.518 168.465 506.576 169.06 505.815C170.298 504.152 176.839 500.024 177.454 503.484C178.126 507.236 171.464 514.606 167.133 511.971Z" fill="#92E3A9" stroke="#263238" stroke-width="1.01181" stroke-miterlimit="10"/>
<path d="M167.134 511.971L173.358 506.155" stroke="#263238" stroke-width="0.505906" stroke-miterlimit="10"/>
<path d="M162.552 534.773L167.393 527.112" stroke="#263238" stroke-width="2.02362" stroke-miterlimit="10"/>
<path d="M165.919 529.407C165.929 528.234 166.106 527.078 166.438 526.016C166.771 524.954 167.251 524.011 167.846 523.251C169.084 521.587 175.625 517.471 176.24 520.92C176.92 524.671 170.226 532.054 165.919 529.407Z" fill="#92E3A9" stroke="#263238" stroke-width="1.01181" stroke-miterlimit="10"/>
<path d="M165.919 529.407L172.144 523.591" stroke="#263238" stroke-width="0.505906" stroke-miterlimit="10"/>
<path d="M165.741 488.999L170.574 481.337" stroke="#263238" stroke-width="2.02362" stroke-miterlimit="10"/>
<path d="M169.109 483.632C169.118 482.461 169.294 481.306 169.625 480.244C169.956 479.183 170.434 478.239 171.027 477.476C172.274 475.825 178.806 471.697 179.429 475.145C180.101 478.958 173.415 486.243 169.109 483.632Z" fill="#92E3A9" stroke="#263238" stroke-width="1.01181" stroke-miterlimit="10"/>
<path d="M169.109 483.632L175.325 477.816" stroke="#263238" stroke-width="0.505906" stroke-miterlimit="10"/>
<path d="M167.716 460.551L172.557 452.889" stroke="#263238" stroke-width="2.02362" stroke-miterlimit="10"/>
<path d="M171.084 455.184C171.093 454.011 171.27 452.855 171.603 451.793C171.935 450.732 172.415 449.789 173.01 449.028C174.249 447.365 180.789 443.237 181.404 446.697C182.084 450.449 175.39 457.819 171.084 455.184Z" fill="#92E3A9" stroke="#263238" stroke-width="1.01181" stroke-miterlimit="10"/>
<path d="M171.084 455.184L177.308 449.368" stroke="#263238" stroke-width="0.505906" stroke-miterlimit="10"/>
<path d="M161.621 549.574L157.938 540.577" stroke="#263238" stroke-width="2.02362" stroke-miterlimit="10"/>
<path d="M159.063 543.309C159.215 542.159 159.2 540.974 159.022 539.832C158.843 538.691 158.504 537.62 158.027 536.692C157.04 534.676 151.212 528.617 150.135 531.835C148.953 535.247 154.466 544.523 159.063 543.309Z" fill="#92E3A9" stroke="#263238" stroke-width="1.01181" stroke-miterlimit="10"/>
<path d="M159.063 543.285L153.462 535.247" stroke="#263238" stroke-width="0.505906" stroke-miterlimit="10"/>
<path d="M164.81 503.678L161.136 494.681" stroke="#263238" stroke-width="2.02362" stroke-miterlimit="10"/>
<path d="M162.253 497.389C162.406 496.239 162.393 495.053 162.214 493.911C162.035 492.769 161.695 491.699 161.216 490.772C160.237 488.756 154.409 482.697 153.324 485.915C152.151 489.351 157.703 498.627 162.253 497.389Z" fill="#92E3A9" stroke="#263238" stroke-width="1.01181" stroke-miterlimit="10"/>
<path d="M162.253 497.389L156.651 489.351" stroke="#263238" stroke-width="0.505906" stroke-miterlimit="10"/>
<path d="M166.219 483.511L162.536 474.514" stroke="#263238" stroke-width="2.02362" stroke-miterlimit="10"/>
<path d="M163.661 477.209C163.812 476.059 163.798 474.874 163.619 473.733C163.441 472.592 163.102 471.521 162.625 470.592C161.637 468.589 155.809 462.53 154.733 465.735C153.551 469.172 159.079 478.46 163.661 477.209Z" fill="#92E3A9" stroke="#263238" stroke-width="1.01181" stroke-miterlimit="10"/>
<path d="M163.661 477.209L158.06 469.184" stroke="#263238" stroke-width="0.505906" stroke-miterlimit="10"/>
<path d="M168.275 453.946L164.592 444.949" stroke="#263238" stroke-width="2.02362" stroke-miterlimit="10"/>
<path d="M165.717 447.644C165.869 446.494 165.854 445.309 165.676 444.168C165.497 443.026 165.158 441.956 164.681 441.027C163.694 439.011 157.865 432.953 156.789 436.17C155.607 439.606 161.136 448.895 165.717 447.644Z" fill="#92E3A9" stroke="#263238" stroke-width="1.01181" stroke-miterlimit="10"/>
<path d="M165.717 447.644L160.116 439.618" stroke="#263238" stroke-width="0.505906" stroke-miterlimit="10"/>
<path d="M169.845 435.029C169.997 433.879 169.982 432.693 169.804 431.552C169.625 430.411 169.286 429.34 168.809 428.411C167.822 426.408 161.993 420.349 160.917 423.555C159.735 426.991 165.264 436.279 169.845 435.029Z" fill="#92E3A9" stroke="#263238" stroke-width="1.01181" stroke-miterlimit="10"/>
<path d="M169.845 435.029L164.244 427.003" stroke="#263238" stroke-width="0.505906" stroke-miterlimit="10"/>
<path d="M169.521 435.381C170.301 435.488 171.086 435.343 171.825 434.956C172.564 434.568 173.239 433.947 173.804 433.135C175.034 431.459 178.434 422.134 176.232 420.847C173.787 419.463 168.226 428.679 169.521 435.381Z" fill="#92E3A9" stroke="#263238" stroke-width="1.01181" stroke-miterlimit="10"/>
<path d="M169.521 435.381L174.257 426.178" stroke="#263238" stroke-width="0.505906" stroke-miterlimit="10"/>
<path d="M141.612 457.006L152.224 610.38" stroke="#263238" stroke-width="2.02362" stroke-miterlimit="10"/>
<path d="M149.876 581.131L153.559 572.134" stroke="#263238" stroke-width="2.02362" stroke-miterlimit="10"/>
<path d="M152.434 574.877C152.283 573.727 152.298 572.541 152.478 571.399C152.659 570.258 152.999 569.188 153.478 568.26C154.466 566.257 160.294 560.198 161.37 563.403C162.56 566.803 157.015 576.092 152.434 574.877Z" fill="#92E3A9" stroke="#263238" stroke-width="1.01181" stroke-miterlimit="10"/>
<path d="M152.434 574.829L157.728 567.216" stroke="#263238" stroke-width="0.505906" stroke-miterlimit="10"/>
<path d="M146.93 538.562L150.613 529.565" stroke="#263238" stroke-width="2.02362" stroke-miterlimit="10"/>
<path d="M149.496 532.272C149.342 531.122 149.355 529.936 149.534 528.794C149.713 527.653 150.053 526.582 150.532 525.655C151.519 523.639 157.347 517.593 158.424 520.798C159.606 524.234 154.069 533.523 149.496 532.272Z" fill="#92E3A9" stroke="#263238" stroke-width="1.01181" stroke-miterlimit="10"/>
<path d="M149.496 532.272L154.781 524.659" stroke="#263238" stroke-width="0.505906" stroke-miterlimit="10"/>
<path d="M148.136 556.009L151.819 547.012" stroke="#263238" stroke-width="2.02362" stroke-miterlimit="10"/>
<path d="M150.702 549.708C150.548 548.558 150.561 547.372 150.74 546.23C150.919 545.088 151.259 544.018 151.738 543.09C152.725 541.087 158.553 535.028 159.63 538.234C160.812 541.682 155.275 550.958 150.702 549.708Z" fill="#92E3A9" stroke="#263238" stroke-width="1.01181" stroke-miterlimit="10"/>
<path d="M150.702 549.708L155.987 542.095" stroke="#263238" stroke-width="0.505906" stroke-miterlimit="10"/>
<path d="M144.971 510.223L148.654 501.238" stroke="#263238" stroke-width="2.02362" stroke-miterlimit="10"/>
<path d="M147.529 503.933C147.378 502.782 147.393 501.596 147.573 500.455C147.753 499.314 148.094 498.243 148.573 497.316C149.56 495.3 155.389 489.254 156.465 492.459C157.639 495.956 152.11 505.184 147.529 503.933Z" fill="#92E3A9" stroke="#263238" stroke-width="1.01181" stroke-miterlimit="10"/>
<path d="M147.529 503.933L152.822 496.32" stroke="#263238" stroke-width="0.505906" stroke-miterlimit="10"/>
<path d="M143.004 481.775L146.687 472.778" stroke="#263238" stroke-width="2.02362" stroke-miterlimit="10"/>
<path d="M145.562 475.473C145.411 474.322 145.426 473.136 145.606 471.995C145.786 470.854 146.127 469.783 146.606 468.856C147.585 466.852 153.413 460.794 154.498 463.999C155.672 467.447 150.143 476.724 145.562 475.473Z" fill="#92E3A9" stroke="#263238" stroke-width="1.01181" stroke-miterlimit="10"/>
<path d="M145.562 475.473L150.856 467.86" stroke="#263238" stroke-width="0.505906" stroke-miterlimit="10"/>
<path d="M149.253 570.774L144.42 563.112" stroke="#263238" stroke-width="2.02362" stroke-miterlimit="10"/>
<path d="M145.894 565.407C145.884 564.234 145.707 563.078 145.375 562.016C145.042 560.954 144.562 560.012 143.967 559.251C142.729 557.588 136.196 553.46 135.573 556.908C134.901 560.66 141.579 568.042 145.894 565.407Z" fill="#92E3A9" stroke="#263238" stroke-width="1.01181" stroke-miterlimit="10"/>
<path d="M145.894 565.407L139.305 559.275" stroke="#263238" stroke-width="0.505906" stroke-miterlimit="10"/>
<path d="M146.08 524.878L141.247 517.204" stroke="#263238" stroke-width="2.02362" stroke-miterlimit="10"/>
<path d="M142.712 519.499C142.705 518.327 142.53 517.17 142.199 516.108C141.868 515.046 141.389 514.103 140.794 513.343C139.556 511.68 133.023 507.551 132.4 511.012C131.72 514.764 138.406 522.134 142.712 519.499Z" fill="#92E3A9" stroke="#263238" stroke-width="1.01181" stroke-miterlimit="10"/>
<path d="M142.712 519.499L136.132 513.38" stroke="#263238" stroke-width="0.505906" stroke-miterlimit="10"/>
<path d="M144.687 504.698L139.855 497.037" stroke="#263238" stroke-width="2.02362" stroke-miterlimit="10"/>
<path d="M141.32 499.332C141.31 498.159 141.133 497.003 140.801 495.941C140.469 494.879 139.989 493.936 139.394 493.176C138.155 491.512 131.623 487.384 131 490.832C130.328 494.584 137.014 502.027 141.32 499.332Z" fill="#92E3A9" stroke="#263238" stroke-width="1.01181" stroke-miterlimit="10"/>
<path d="M141.32 499.332L134.739 493.2" stroke="#263238" stroke-width="0.505906" stroke-miterlimit="10"/>
<path d="M142.639 475.133L137.807 467.459" stroke="#263238" stroke-width="2.02362" stroke-miterlimit="10"/>
<path d="M139.272 469.766C139.266 468.594 139.091 467.437 138.76 466.375C138.429 465.313 137.949 464.37 137.354 463.611C136.107 461.935 129.575 457.807 128.96 461.267C128.28 465.019 134.966 472.401 139.272 469.766Z" fill="#92E3A9" stroke="#263238" stroke-width="1.01181" stroke-miterlimit="10"/>
<path d="M139.272 469.766L132.691 463.635" stroke="#263238" stroke-width="0.505906" stroke-miterlimit="10"/>
<path d="M141.587 456.143C141.578 454.97 141.401 453.814 141.068 452.753C140.736 451.691 140.256 450.748 139.661 449.988C138.422 448.324 131.89 444.196 131.267 447.644C130.587 451.396 137.273 458.778 141.587 456.143Z" fill="#92E3A9" stroke="#263238" stroke-width="1.01181" stroke-miterlimit="10"/>
<path d="M141.587 456.143L134.998 450.012" stroke="#263238" stroke-width="0.505906" stroke-miterlimit="10"/>
<path d="M141.312 456.58C142.089 456.445 142.838 456.061 143.508 455.456C144.178 454.851 144.754 454.038 145.198 453.071C146.169 451.044 148.217 440.869 145.869 440.298C143.303 439.691 139.086 450.437 141.312 456.58Z" fill="#92E3A9" stroke="#263238" stroke-width="1.01181" stroke-miterlimit="10"/>
<path d="M141.312 456.58L144.687 446.126" stroke="#263238" stroke-width="0.505906" stroke-miterlimit="10"/>
<path d="M153.769 394.548V588.501" stroke="#263238" stroke-width="2.02362" stroke-miterlimit="10"/>
<path d="M153.673 559.336L157.946 550.958" stroke="#263238" stroke-width="2.02362" stroke-miterlimit="10"/>
<path d="M156.643 553.472C156.571 552.304 156.667 551.126 156.924 550.018C157.181 548.91 157.593 547.898 158.132 547.049C159.258 545.203 165.466 540.091 166.324 543.406C167.255 547.049 161.111 555.451 156.643 553.472Z" fill="#92E3A9" stroke="#263238" stroke-width="1.01181" stroke-miterlimit="10"/>
<path d="M156.643 553.472L162.431 546.721" stroke="#263238" stroke-width="0.505906" stroke-miterlimit="10"/>
<path d="M153.673 522.886L157.946 514.521" stroke="#263238" stroke-width="2.02362" stroke-miterlimit="10"/>
<path d="M156.643 517.022C156.572 515.856 156.667 514.68 156.924 513.574C157.181 512.468 157.593 511.458 158.132 510.611C159.258 508.753 165.466 503.642 166.324 506.969C167.255 510.611 161.111 519.025 156.643 517.022Z" fill="#92E3A9" stroke="#263238" stroke-width="1.01181" stroke-miterlimit="10"/>
<path d="M156.643 517.022L162.431 510.271" stroke="#263238" stroke-width="0.505906" stroke-miterlimit="10"/>
<path d="M153.673 480.099L157.946 471.721" stroke="#263238" stroke-width="2.02362" stroke-miterlimit="10"/>
<path d="M156.643 474.234C156.571 473.066 156.667 471.889 156.924 470.781C157.181 469.673 157.593 468.661 158.132 467.812C159.258 465.966 165.466 460.854 166.324 464.169C167.255 467.812 161.111 476.189 156.643 474.234Z" fill="#92E3A9" stroke="#263238" stroke-width="1.01181" stroke-miterlimit="10"/>
<path d="M156.643 474.235L162.431 467.484" stroke="#263238" stroke-width="0.505906" stroke-miterlimit="10"/>
<path d="M153.673 451.614L157.946 443.237" stroke="#263238" stroke-width="2.02362" stroke-miterlimit="10"/>
<path d="M156.643 445.75C156.571 444.582 156.667 443.404 156.924 442.297C157.181 441.189 157.593 440.176 158.132 439.327C159.258 437.481 165.466 432.358 166.324 435.684C167.255 439.327 161.111 447.705 156.643 445.75Z" fill="#92E3A9" stroke="#263238" stroke-width="1.01181" stroke-miterlimit="10"/>
<path d="M156.643 445.75L162.431 438.999" stroke="#263238" stroke-width="0.505906" stroke-miterlimit="10"/>
<path d="M153.673 422.996L157.946 414.631" stroke="#263238" stroke-width="2.02362" stroke-miterlimit="10"/>
<path d="M156.643 417.144C156.571 415.976 156.667 414.798 156.924 413.691C157.181 412.583 157.593 411.57 158.132 410.721C159.258 408.875 165.466 403.752 166.324 407.078C167.255 410.721 161.111 419.099 156.643 417.144Z" fill="#92E3A9" stroke="#263238" stroke-width="1.01181" stroke-miterlimit="10"/>
<path d="M156.643 417.144L162.431 410.393" stroke="#263238" stroke-width="0.505906" stroke-miterlimit="10"/>
<path d="M153.762 570.47L149.48 562.092" stroke="#263238" stroke-width="2.02362" stroke-miterlimit="10"/>
<path d="M150.783 564.606C150.854 563.438 150.758 562.26 150.501 561.152C150.245 560.044 149.833 559.032 149.293 558.183C148.176 556.337 141.96 551.213 141.11 554.54C140.179 558.183 146.323 566.56 150.783 564.606Z" fill="#92E3A9" stroke="#263238" stroke-width="1.01181" stroke-miterlimit="10"/>
<path d="M150.783 564.606L144.655 557.49" stroke="#263238" stroke-width="0.505906" stroke-miterlimit="10"/>
<path d="M153.762 512.505L149.48 504.127" stroke="#263238" stroke-width="2.02362" stroke-miterlimit="10"/>
<path d="M150.783 506.641C150.854 505.473 150.758 504.295 150.501 503.188C150.245 502.08 149.833 501.067 149.293 500.218C148.176 498.372 141.96 493.249 141.11 496.575C140.179 500.218 146.323 508.596 150.783 506.641Z" fill="#92E3A9" stroke="#263238" stroke-width="1.01181" stroke-miterlimit="10"/>
<path d="M150.783 506.641L144.655 499.526" stroke="#263238" stroke-width="0.505906" stroke-miterlimit="10"/>
<path d="M153.762 483.887L149.48 475.509" stroke="#263238" stroke-width="2.02362" stroke-miterlimit="10"/>
<path d="M150.783 478.023C150.854 476.855 150.758 475.677 150.501 474.569C150.245 473.462 149.833 472.449 149.293 471.6C148.176 469.754 141.96 464.643 141.11 467.957C140.179 471.6 146.323 479.978 150.783 478.023Z" fill="#92E3A9" stroke="#263238" stroke-width="1.01181" stroke-miterlimit="10"/>
<path d="M150.783 478.023L144.655 470.908" stroke="#263238" stroke-width="0.505906" stroke-miterlimit="10"/>
<path d="M153.762 446.078L149.48 437.7" stroke="#263238" stroke-width="2.02362" stroke-miterlimit="10"/>
<path d="M150.783 440.213C150.854 439.045 150.758 437.868 150.501 436.76C150.245 435.652 149.833 434.64 149.293 433.79C148.176 431.945 141.96 426.821 141.11 430.148C140.179 433.79 146.323 442.168 150.783 440.213Z" fill="#92E3A9" stroke="#263238" stroke-width="1.01181" stroke-miterlimit="10"/>
<path d="M150.783 440.213L144.655 433.098" stroke="#263238" stroke-width="0.505906" stroke-miterlimit="10"/>
<path d="M153.762 416.343L149.48 407.965" stroke="#263238" stroke-width="2.02362" stroke-miterlimit="10"/>
<path d="M150.783 410.478C150.854 409.31 150.758 408.133 150.501 407.025C150.245 405.917 149.833 404.904 149.293 404.055C148.176 402.21 141.96 397.098 141.11 400.413C140.179 404.055 146.323 412.433 150.783 410.478Z" fill="#92E3A9" stroke="#263238" stroke-width="1.01181" stroke-miterlimit="10"/>
<path d="M150.783 410.478L144.655 403.363" stroke="#263238" stroke-width="0.505906" stroke-miterlimit="10"/>
<path d="M154.02 397.292C154.092 396.124 153.996 394.947 153.739 393.839C153.482 392.731 153.07 391.719 152.531 390.869C151.414 389.024 145.197 383.912 144.339 387.227C143.408 390.869 149.552 399.247 154.02 397.292Z" fill="#92E3A9" stroke="#263238" stroke-width="1.01181" stroke-miterlimit="10"/>
<path d="M154.02 397.292L147.893 390.177" stroke="#263238" stroke-width="0.505906" stroke-miterlimit="10"/>
<path d="M153.721 397.693C154.504 397.678 155.275 397.411 155.983 396.91C156.691 396.409 157.319 395.687 157.825 394.791C158.926 392.933 161.67 383.123 159.371 382.2C156.894 381.192 151.956 391.234 153.721 397.693Z" fill="#92E3A9" stroke="#263238" stroke-width="1.01181" stroke-miterlimit="10"/>
<path d="M153.721 397.693L157.792 387.81" stroke="#263238" stroke-width="0.505906" stroke-miterlimit="10"/>
<path d="M148.451 638.804H162.147L163.855 586.922H146.743L148.451 638.804Z" fill="#263238" stroke="#263238" stroke-width="1.01181" stroke-miterlimit="10"/>
<path d="M143.133 228.838C143.131 221.939 144.237 215.141 146.357 209.019C148.478 202.897 151.55 197.632 155.314 193.668C159.079 189.705 163.424 187.16 167.983 186.249C172.542 185.338 177.18 186.088 181.505 188.436C185.83 190.783 189.714 194.659 192.828 199.734C195.943 204.81 198.197 210.937 199.399 217.596C200.601 224.255 200.715 231.25 199.733 237.99C198.751 244.73 196.701 251.015 193.756 256.314C189.539 263.896 187.23 273.456 187.232 283.33V289.206H156.327V283.33C156.345 273.472 154.053 263.919 149.851 256.339C145.525 248.643 143.146 238.905 143.133 228.838Z" fill="white" stroke="#263238" stroke-width="1.01181" stroke-linecap="round" stroke-linejoin="round"/>
<path d="M156.327 289.219H187.272V300.705H156.327V289.219Z" fill="#D8B08C" stroke="#263238" stroke-width="1.01181" stroke-linecap="round" stroke-linejoin="round"/>
<path d="M187.272 300.729H156.327V306.472C156.327 307.995 156.731 309.456 157.449 310.533C158.167 311.61 159.14 312.215 160.156 312.215H183.452C184.467 312.215 185.441 311.61 186.159 310.533C186.877 309.456 187.28 307.995 187.28 306.472V300.729H187.272Z" fill="#D8B08C" stroke="#263238" stroke-width="1.01181" stroke-linecap="round" stroke-linejoin="round"/>
<path d="M183.371 312.203H160.237V315.845C160.237 317.909 160.783 319.889 161.756 321.349C162.729 322.808 164.049 323.628 165.425 323.628H178.182C179.558 323.628 180.878 322.808 181.851 321.349C182.824 319.889 183.371 317.909 183.371 315.845V312.203Z" fill="#263238" stroke="#263238" stroke-width="1.01181" stroke-linecap="round" stroke-linejoin="round"/>
<path d="M139.11 229.068H125.997" stroke="#263238" stroke-width="1.01181" stroke-linecap="round" stroke-linejoin="round"/>
<path d="M218.833 229.068H205.55" stroke="#263238" stroke-width="1.01181" stroke-linecap="round" stroke-linejoin="round"/>
<path d="M172.411 179.166V159.447" stroke="#263238" stroke-width="1.01181" stroke-linecap="round" stroke-linejoin="round"/>
<path d="M148.645 193.408L139.596 179.833" stroke="#263238" stroke-width="1.01181" stroke-linecap="round" stroke-linejoin="round"/>
<path d="M205.234 278.291L196.055 264.522" stroke="#263238" stroke-width="1.01181" stroke-linecap="round" stroke-linejoin="round"/>
<path d="M196.443 193.019L205.234 179.833" stroke="#263238" stroke-width="1.01181" stroke-linecap="round" stroke-linejoin="round"/>
<path d="M139.596 278.291L148.346 265.166" stroke="#263238" stroke-width="1.01181" stroke-linecap="round" stroke-linejoin="round"/>
<path d="M341.003 214.413L378.894 135.82L416.792 214.413H401.202V301.724H356.585V214.413H341.003Z" fill="#3C4EA2" stroke="#263238" stroke-width="1.01181" stroke-linecap="round" stroke-linejoin="round"/>
<path d="M372.929 348.733C351.631 343.57 337.156 313.487 340.597 281.539C344.039 249.592 364.095 227.879 385.393 233.042C406.692 238.205 421.167 268.288 417.725 300.236C414.283 332.183 394.227 353.896 372.929 348.733Z" fill="white" stroke="#263238" stroke-width="1.01181" stroke-linecap="round" stroke-linejoin="round"/>
<path d="M349.413 313.386C341.133 288.753 347.732 258.715 364.154 246.294C380.576 233.873 400.601 243.772 408.882 268.405C417.163 293.037 410.563 323.075 394.142 335.497C377.72 347.918 357.694 338.019 349.413 313.386Z" fill="white" stroke="#263238" stroke-width="1.01181" stroke-linecap="round" stroke-linejoin="round"/>
<path d="M572.465 248.675C558.644 244.915 549.472 225.061 551.979 204.33C554.486 183.599 567.722 169.841 581.543 173.601C595.363 177.361 604.535 197.215 602.028 217.946C599.522 238.678 586.286 252.435 572.465 248.675Z" fill="white" stroke="#263238" stroke-width="1.01181" stroke-linecap="round" stroke-linejoin="round"/>
<path d="M569.819 174.576L576.998 211.147H551.565C551.568 202.913 553.347 194.9 556.637 188.308C559.928 181.716 564.552 176.899 569.819 174.576Z" fill="#47BEE8" stroke="#263238" stroke-width="1.01181" stroke-linecap="round" stroke-linejoin="round"/>
<path d="M561.206 187.082L551.112 169.234H542.451" stroke="#263238" stroke-width="0.505906" stroke-linecap="round" stroke-linejoin="round"/>
<path d="M536.315 169.768H523.332" stroke="#263238" stroke-width="0.505906" stroke-linecap="round" stroke-linejoin="round"/>
<path d="M536.315 174.637H523.332" stroke="#263238" stroke-width="0.505906" stroke-linecap="round" stroke-linejoin="round"/>
<path d="M536.315 179.506H523.332" stroke="#263238" stroke-width="0.505906" stroke-linecap="round" stroke-linejoin="round"/>
<path d="M536.315 184.374H523.332" stroke="#263238" stroke-width="0.505906" stroke-linecap="round" stroke-linejoin="round"/>
<path d="M601.33 289.631H608.729V322.742H601.33V289.631Z" fill="#263238" stroke="#263238" stroke-width="0.505906" stroke-linecap="round" stroke-linejoin="round"/>
<path d="M589.707 301.542H597.105V322.742H589.707V301.542Z" fill="#EC2E35" stroke="#263238" stroke-width="1.01181" stroke-linecap="round" stroke-linejoin="round"/>
<path d="M578.075 282.383H585.473V322.742H578.075V282.383Z" fill="#263238" stroke="#263238" stroke-width="0.505906" stroke-linecap="round" stroke-linejoin="round"/>
<path d="M566.443 290.736H573.841V322.754H566.443V290.736Z" fill="#F49233" stroke="#263238" stroke-width="1.01181" stroke-linecap="round" stroke-linejoin="round"/>
<path d="M554.82 283.415H562.218V322.742H554.82V283.415Z" fill="#263238" stroke="#263238" stroke-width="0.505906" stroke-linecap="round" stroke-linejoin="round"/>
<path d="M543.188 260.115H550.586V322.754H543.188V260.115Z" fill="#3C4EA2" stroke="#263238" stroke-width="1.01181" stroke-linecap="round" stroke-linejoin="round"/>
<path d="M534.874 259.459H530.544" stroke="#263238" stroke-width="0.505906" stroke-linecap="round" stroke-linejoin="round"/>
<path d="M534.874 272.111H530.544" stroke="#263238" stroke-width="0.505906" stroke-linecap="round" stroke-linejoin="round"/>
<path d="M534.874 284.775H530.544" stroke="#263238" stroke-width="0.505906" stroke-linecap="round" stroke-linejoin="round"/>
<path d="M534.874 297.439H530.544" stroke="#263238" stroke-width="0.505906" stroke-linecap="round" stroke-linejoin="round"/>
<path d="M534.874 310.102H530.544" stroke="#263238" stroke-width="0.505906" stroke-linecap="round" stroke-linejoin="round"/>
<path d="M534.874 322.754H530.544" stroke="#263238" stroke-width="0.505906" stroke-linecap="round" stroke-linejoin="round"/>
<path d="M604.495 277.429L593.163 287.713L581.369 268.772L569.721 270.241L558.437 263.527L545.664 238.32" stroke="#263238" stroke-width="1.01181" stroke-linecap="round" stroke-linejoin="round"/>
<path d="M603.071 277.405C603.071 276.979 603.155 276.563 603.313 276.209C603.471 275.856 603.695 275.58 603.957 275.418C604.219 275.256 604.508 275.214 604.786 275.298C605.064 275.382 605.319 275.588 605.52 275.889C605.72 276.191 605.855 276.575 605.91 276.993C605.964 277.41 605.935 277.843 605.825 278.235C605.715 278.628 605.53 278.963 605.294 279.197C605.057 279.432 604.779 279.556 604.495 279.554C604.308 279.554 604.122 279.498 603.948 279.39C603.775 279.282 603.618 279.123 603.485 278.923C603.353 278.724 603.248 278.487 603.177 278.226C603.106 277.965 603.07 277.686 603.071 277.405Z" fill="#263238"/>
<path d="M591.73 287.713C591.73 287.288 591.814 286.872 591.972 286.519C592.129 286.166 592.353 285.89 592.615 285.727C592.877 285.565 593.165 285.522 593.443 285.605C593.721 285.688 593.976 285.893 594.176 286.193C594.377 286.494 594.513 286.877 594.568 287.294C594.624 287.711 594.595 288.143 594.487 288.535C594.378 288.928 594.195 289.264 593.959 289.5C593.724 289.736 593.447 289.862 593.163 289.862C592.975 289.864 592.788 289.809 592.614 289.702C592.439 289.594 592.281 289.436 592.148 289.236C592.014 289.036 591.909 288.799 591.837 288.537C591.766 288.276 591.729 287.996 591.73 287.713Z" fill="#263238"/>
<path d="M579.944 268.772C579.944 268.346 580.029 267.93 580.186 267.577C580.344 267.223 580.568 266.947 580.831 266.785C581.093 266.623 581.382 266.581 581.66 266.665C581.938 266.749 582.193 266.955 582.393 267.257C582.593 267.558 582.729 267.942 582.783 268.36C582.838 268.778 582.808 269.21 582.698 269.603C582.589 269.995 582.404 270.33 582.167 270.565C581.931 270.799 581.653 270.923 581.369 270.921C581.181 270.921 580.995 270.865 580.822 270.757C580.649 270.649 580.491 270.49 580.359 270.291C580.226 270.091 580.122 269.854 580.051 269.593C579.979 269.333 579.943 269.053 579.944 268.772Z" fill="#263238"/>
<path d="M568.297 270.241C568.297 269.816 568.381 269.4 568.539 269.046C568.697 268.692 568.921 268.417 569.183 268.254C569.445 268.092 569.734 268.05 570.012 268.134C570.29 268.218 570.545 268.424 570.745 268.726C570.945 269.028 571.081 269.412 571.136 269.829C571.19 270.247 571.16 270.679 571.051 271.072C570.941 271.464 570.756 271.799 570.52 272.034C570.283 272.269 570.005 272.393 569.721 272.39C569.534 272.39 569.348 272.335 569.174 272.226C569.001 272.118 568.844 271.96 568.711 271.76C568.579 271.56 568.474 271.323 568.403 271.063C568.332 270.802 568.296 270.523 568.297 270.241Z" fill="#263238"/>
<path d="M557.005 263.187C557.005 262.762 557.089 262.346 557.246 261.993C557.404 261.639 557.627 261.364 557.889 261.201C558.151 261.038 558.439 260.996 558.717 261.079C558.995 261.162 559.25 261.366 559.451 261.667C559.651 261.968 559.787 262.35 559.843 262.767C559.898 263.184 559.87 263.616 559.761 264.009C559.653 264.402 559.469 264.737 559.233 264.974C558.998 265.21 558.721 265.336 558.437 265.336C558.057 265.336 557.693 265.109 557.424 264.706C557.156 264.303 557.005 263.757 557.005 263.187Z" fill="#263238"/>
<path d="M544.24 238.32C544.24 237.895 544.324 237.479 544.482 237.125C544.64 236.771 544.864 236.496 545.126 236.334C545.389 236.171 545.677 236.13 545.955 236.213C546.233 236.297 546.489 236.503 546.689 236.805C546.889 237.107 547.025 237.491 547.079 237.909C547.133 238.326 547.104 238.759 546.994 239.151C546.884 239.544 546.699 239.878 546.463 240.113C546.226 240.348 545.948 240.472 545.665 240.469C545.286 240.466 544.924 240.238 544.657 239.836C544.39 239.433 544.24 238.888 544.24 238.32Z" fill="#263238"/>
<path d="M262.13 586.315H257.516V519.633H262.13V586.315Z" fill="#263238" stroke="#263238" stroke-width="1.01181" stroke-linecap="round" stroke-linejoin="round"/>
<path d="M239.152 521.973L231.016 523.401L225.853 457.169L233.989 455.742L239.152 521.973Z" fill="#263238" stroke="#263238" stroke-width="1.01181" stroke-linecap="round" stroke-linejoin="round"/>
<path d="M265.684 589.047V577.803H253.971V589.144L207.12 617.349V630.657H210.318V620.542L259.993 603.58L308.358 620.542V630.657H311.466V617.349L265.684 589.047Z" fill="#8C8C8C" stroke="#263238" stroke-width="1.01181" stroke-linecap="round" stroke-linejoin="round"/>
<path d="M271.358 540.929H248.289V519.633H271.358V540.929Z" fill="#263238" stroke="#263238" stroke-width="1.01181" stroke-linecap="round" stroke-linejoin="round"/>
<path d="M207.08 631.191C207.08 629.716 206.788 628.274 206.242 627.048C205.695 625.821 204.918 624.866 204.01 624.302C203.101 623.738 202.101 623.591 201.137 623.88C200.173 624.169 199.287 624.88 198.593 625.924C197.898 626.967 197.425 628.297 197.234 629.744C197.043 631.191 197.143 632.69 197.52 634.052C197.898 635.414 198.536 636.578 199.354 637.395C200.173 638.213 201.134 638.648 202.118 638.646C202.77 638.646 203.416 638.453 204.019 638.078C204.621 637.703 205.168 637.154 205.629 636.462C206.09 635.769 206.455 634.947 206.704 634.043C206.953 633.138 207.081 632.169 207.08 631.191Z" fill="#263238" stroke="#263238" stroke-width="1.01181" stroke-linecap="round" stroke-linejoin="round"/>
<path d="M204.287 631.191C204.287 630.559 204.162 629.942 203.928 629.417C203.694 628.891 203.362 628.482 202.973 628.24C202.584 627.999 202.156 627.936 201.743 628.059C201.33 628.182 200.951 628.486 200.653 628.933C200.355 629.379 200.152 629.948 200.07 630.568C199.988 631.187 200.03 631.829 200.191 632.413C200.353 632.996 200.625 633.495 200.976 633.846C201.326 634.197 201.737 634.384 202.158 634.384C202.723 634.384 203.264 634.048 203.664 633.449C204.063 632.85 204.287 632.038 204.287 631.191Z" fill="white" stroke="#263238" stroke-width="1.01181" stroke-linecap="round" stroke-linejoin="round"/>
<path d="M321.763 631.191C321.763 629.716 321.471 628.275 320.925 627.049C320.379 625.823 319.603 624.867 318.695 624.303C317.786 623.739 316.787 623.591 315.823 623.879C314.859 624.167 313.973 624.877 313.278 625.919C312.583 626.962 312.11 628.29 311.918 629.736C311.726 631.183 311.825 632.681 312.201 634.044C312.577 635.406 313.214 636.57 314.031 637.389C314.849 638.209 315.81 638.646 316.793 638.646C318.111 638.646 319.375 637.86 320.307 636.462C321.239 635.064 321.763 633.168 321.763 631.191Z" fill="#263238" stroke="#263238" stroke-width="1.01181" stroke-linecap="round" stroke-linejoin="round"/>
<path d="M316.792 634.384C315.617 634.384 314.664 632.954 314.664 631.191C314.664 629.427 315.617 627.997 316.792 627.997C317.968 627.997 318.921 629.427 318.921 631.191C318.921 632.954 317.968 634.384 316.792 634.384Z" fill="white" stroke="#263238" stroke-width="1.01181" stroke-linecap="round" stroke-linejoin="round"/>
<path d="M261.96 631.045H258.059L256.1 591.111H263.911L261.96 631.045Z" fill="#8C8C8C" stroke="#263238" stroke-width="1.01181" stroke-linecap="round" stroke-linejoin="round"/>
<path d="M261.774 639.022H257.873V622.522H261.774V639.022Z" fill="#263238" stroke="#263238" stroke-width="1.01181" stroke-linecap="round" stroke-linejoin="round"/>
<path d="M229.097 488.987C226.82 489.317 224.523 488.971 222.335 487.968C220.148 486.966 218.114 485.327 216.349 483.146C214.584 480.964 213.123 478.282 212.049 475.253C210.975 472.224 210.31 468.907 210.091 465.492L204.651 380.609C204.209 373.714 205.611 366.837 208.548 361.491C211.485 356.145 215.717 352.767 220.314 352.101C224.912 351.441 229.496 353.546 233.06 357.954C236.624 362.361 238.875 368.711 239.32 375.607L244.768 460.599C245.189 467.478 243.777 474.327 240.84 479.647C237.903 484.967 233.68 488.325 229.097 488.987Z" fill="#8C8C8C" stroke="#263238" stroke-width="1.01181" stroke-linecap="round" stroke-linejoin="round"/>
<path d="M233.225 488.392C228.628 489.055 224.043 486.952 220.479 482.547C216.915 478.141 214.663 471.793 214.219 464.898L208.771 379.905C208.343 373.02 209.752 366.16 212.689 360.83C215.627 355.5 219.853 352.133 224.442 351.469C226.719 351.141 229.016 351.489 231.203 352.493C233.39 353.496 235.423 355.136 237.187 357.319C238.952 359.502 240.412 362.185 241.485 365.215C242.558 368.244 243.222 371.561 243.44 374.976L248.888 459.895C249.33 466.789 247.928 473.665 244.991 479.009C242.053 484.353 237.821 487.728 233.225 488.392Z" fill="#8C8C8C" stroke="#263238" stroke-width="1.01181" stroke-linecap="round" stroke-linejoin="round"/>
<path d="M308.998 526.31L227.761 529.516C227.31 529.537 226.861 529.425 226.44 529.185C226.018 528.946 225.632 528.584 225.303 528.12C224.975 527.657 224.71 527.101 224.525 526.484C224.34 525.867 224.238 525.202 224.224 524.526L223.811 505.026C223.797 504.35 223.872 503.676 224.032 503.043C224.191 502.411 224.432 501.832 224.741 501.339C225.05 500.846 225.421 500.449 225.832 500.172C226.244 499.894 226.687 499.74 227.138 499.72L308.366 496.515C308.817 496.492 309.266 496.603 309.687 496.841C310.109 497.079 310.495 497.44 310.824 497.902C311.153 498.365 311.417 498.92 311.602 499.536C311.788 500.152 311.89 500.817 311.904 501.493L312.308 521.005C312.337 522.366 312.004 523.689 311.384 524.683C310.763 525.678 309.905 526.263 308.998 526.31Z" fill="#8C8C8C" stroke="#263238" stroke-width="1.01181" stroke-linecap="round" stroke-linejoin="round"/>
<path d="M275.032 527.253L227.751 529.495C225.856 529.584 224.272 527.353 224.212 524.512L223.801 505.01C223.741 502.168 225.229 499.791 227.123 499.701L274.404 497.46C276.298 497.371 277.883 499.601 277.943 502.443L278.354 521.945C278.413 524.787 276.926 527.164 275.032 527.253Z" fill="#8C8C8C" stroke="#263238" stroke-width="1.01181" stroke-linecap="round" stroke-linejoin="round"/>
<path d="M314.413 609.749L314.809 614.241C314.809 614.241 318.403 625.023 319.804 626.82C321.204 628.617 329.986 634.299 331.581 635.198C333.176 636.096 330.383 638.84 326.587 639.095C322.79 639.35 315.805 639.399 313.409 638.5C311.013 637.602 306.423 632.502 305.42 632.211L304.61 636.096C304.61 636.096 300.215 633.668 298.62 633.109C297.026 632.551 294.427 629.467 294.427 629.467C295.335 625.284 296.399 621.181 297.617 617.179C298.354 615.171 299.299 613.352 300.417 611.788L303.404 606.446L314.413 609.749Z" fill="#263238" stroke="#263238" stroke-width="1.01181" stroke-linecap="round" stroke-linejoin="round"/>
<path d="M290.251 438.647L296.84 444.633L311.215 450.922C311.215 450.922 356.739 463.501 359.337 468.03C361.936 472.559 360.956 476.42 358.738 482.114C356.52 487.809 317.974 613.937 317.974 613.937L301.996 609.141L328.756 488.367C328.756 488.367 278.433 503.642 269.666 501.238C260.9 498.834 249.697 484.773 247.706 473.992C245.715 463.21 254.894 446.066 254.894 446.066L290.251 438.647Z" fill="#96B9FF" stroke="#263238" stroke-width="1.01181" stroke-linecap="round" stroke-linejoin="round"/>
<path d="M340.08 476.651C340.08 476.651 330.019 483.936 328.214 492.131" stroke="#263238" stroke-width="1.01181" stroke-linecap="round" stroke-linejoin="round"/>
<path d="M238.138 338.611L259.702 335.612L291.246 442.836L270.484 448.227L238.138 338.611Z" fill="white" stroke="#263238" stroke-width="1.01181" stroke-linecap="round" stroke-linejoin="round"/>
<path d="M259.306 345.629C259.306 345.629 290.85 441.318 291.263 442.836C291.675 444.354 300.644 448.227 302.643 448.822C304.643 449.417 311.232 450.922 311.232 450.922L300.045 439.546L292.072 408.693L301.785 401.251C301.785 401.251 283.816 360.818 279.825 347.038C275.834 333.257 274.264 329.614 270.282 329.323C266.299 329.031 254.902 330.221 254.902 330.221L259.306 345.629Z" fill="#96B9FF" stroke="#263238" stroke-width="1.01181" stroke-linecap="round" stroke-linejoin="round"/>
<path d="M263.693 365.857L263.296 372.754C263.296 372.754 284.261 429.055 284.455 430.257C284.649 431.459 282.836 439.837 282.836 439.837L275.446 431.75L261.475 373.956L257.678 370.653V359.956L263.693 365.857Z" fill="#263238" stroke="#263238" stroke-width="1.01181" stroke-linecap="round" stroke-linejoin="round"/>
<path d="M255.355 262.361C255.355 262.361 262.77 289.291 264.413 297.45C266.056 305.61 267.214 318.941 266.841 320.423C266.469 321.904 264.413 327.088 260.584 327.343C256.756 327.598 253.502 327.586 253.502 327.586L259.265 345.629C259.265 345.629 258.609 359.713 257.646 359.956C256.683 360.199 242.161 343.407 241.829 342.654C241.497 341.901 232.278 312.3 232.278 312.3C232.278 312.3 224.038 306.12 223.544 300.68C223.383 299.159 223.497 297.6 223.874 296.167C224.251 294.734 224.878 293.479 225.689 292.533V285.855L222.063 269.549C222.063 269.549 231.12 260.661 241.174 256.946C251.227 253.23 253.364 255.731 253.364 255.731L255.355 262.361Z" fill="white" stroke="#263238" stroke-width="1.01181" stroke-linecap="round" stroke-linejoin="round"/>
<path d="M238.721 247.293C238.721 247.293 253.542 241.356 260.131 250.013C266.72 258.67 249.592 272.548 243.991 273.762C238.389 274.976 231.468 273.264 233.12 275.498C234.771 277.732 238.389 281.181 236.576 283.403C235.438 284.773 234.159 285.856 232.788 286.608C232.788 286.608 240.526 312.106 241.846 315.02C243.165 317.934 245.634 317.739 247.115 316.999C248.596 316.258 255.679 309.592 257.986 308.354C260.293 307.115 264.575 303.412 265.563 307.37C266.55 311.329 269.027 328.121 265.401 331.824C261.774 335.527 244.153 326.142 241.514 323.422C238.875 320.702 238.057 315.76 237.564 314.777C237.07 313.793 229.987 296.249 229.332 295.01C228.676 293.772 225.705 292.582 225.705 292.582C225.705 292.582 219.772 274.782 219.278 267.873C218.784 260.965 234.269 247.05 238.721 247.293Z" fill="#263238" stroke="#263238" stroke-width="1.01181" stroke-linecap="round" stroke-linejoin="round"/>
<path d="M254.198 281.63L254.53 292.558C254.53 292.558 262.268 305.646 262.268 307.128C262.268 308.609 253.048 306.885 253.048 306.885" stroke="#263238" stroke-width="1.01181" stroke-linecap="round" stroke-linejoin="round"/>
<path d="M255.355 279.165C255.638 278.337 256.106 277.685 256.677 277.323C257.249 276.961 257.887 276.913 258.48 277.186" stroke="#263238" stroke-width="1.01181" stroke-linecap="round" stroke-linejoin="round"/>
<path d="M248.435 285.333C248.435 285.333 243.659 284.593 242.178 290.032" stroke="#263238" stroke-width="1.01181" stroke-linecap="round" stroke-linejoin="round"/>
<path d="M261.313 312.761C261.313 312.761 257.031 316.719 254.23 316.719" stroke="white" stroke-width="1.01181" stroke-linecap="round" stroke-linejoin="round"/>
<path d="M246.808 296.042C247.261 297.39 248.087 298.119 248.653 297.694C249.22 297.269 249.317 295.824 248.864 294.488C248.41 293.153 247.585 292.412 247.018 292.837C246.451 293.262 246.354 294.707 246.808 296.042Z" fill="#263238"/>
<path d="M257.12 290.032C257.565 291.367 258.399 292.108 258.965 291.671C259.532 291.234 259.629 289.813 259.176 288.466C258.723 287.118 257.897 286.389 257.33 286.826C256.764 287.264 256.667 288.684 257.12 290.032Z" fill="#263238"/>
<path d="M328.586 599.732L329.986 612.31L332.981 613.525C332.981 613.525 335.782 618.588 336.373 619.802C336.964 621.016 344.362 629.078 346.354 630.584C348.345 632.089 353.347 632.672 353.145 634.773C352.942 636.873 342.363 638.67 335.572 638.962C328.78 639.253 324.992 635.975 324.992 635.975L324.393 638.063L317.408 637.165C317.408 637.165 317.804 627.281 317.602 623.092C317.538 619.685 317.674 616.277 318.007 612.905L318.403 604.224L328.586 599.732Z" fill="#263238" stroke="#263238" stroke-width="1.01181" stroke-linecap="round" stroke-linejoin="round"/>
<path d="M272.475 452.719C272.475 452.719 329.185 463.197 330.383 465.298C331.581 467.399 330.586 529.394 330.586 529.394L337.174 601.953L316.809 611.303C316.809 611.303 310.414 550.12 308.22 533.595C306.721 521.308 305.653 508.91 305.023 496.454C305.023 496.454 273.673 507.236 262.932 498.251C252.19 489.266 254.352 478.18 254.352 478.18" fill="#96B9FF"/>
<path d="M272.475 452.719C272.475 452.719 329.185 463.197 330.383 465.298C331.581 467.399 330.586 529.394 330.586 529.394L337.174 601.953L316.809 611.303C316.809 611.303 310.414 550.12 308.22 533.595C306.721 521.308 305.653 508.91 305.023 496.454C305.023 496.454 273.673 507.236 262.932 498.251C252.19 489.266 254.352 478.18 254.352 478.18" stroke="#263238" stroke-width="1.01181" stroke-linecap="round" stroke-linejoin="round"/>
<path d="M329.501 526.966C329.501 526.966 326.919 509.555 326.409 500.254" stroke="#263238" stroke-width="1.01181" stroke-linecap="round" stroke-linejoin="round"/>
<path d="M309.24 486.437C309.855 485.202 310.595 484.12 311.434 483.231" stroke="#263238" stroke-width="1.01181" stroke-linecap="round" stroke-linejoin="round"/>
<path d="M305.023 496.454C305.023 496.454 306.172 493.078 307.678 489.667" stroke="#263238" stroke-width="1.01181" stroke-linecap="round" stroke-linejoin="round"/>
<path d="M238.932 332.917C238.932 332.917 261.499 395.18 266.291 411.085C271.083 426.991 277.502 449.125 277.502 451.517C277.502 453.909 281.695 515.322 280.294 516.512C278.894 517.702 257.937 507.527 248.151 501.845C238.365 496.163 237.968 491.961 237.167 488.659C236.366 485.356 236.568 442.836 236.568 442.836C236.568 442.836 216.202 355.974 216.405 352.089C216.607 348.203 238.932 332.917 238.932 332.917Z" fill="#96B9FF" stroke="#263238" stroke-width="1.01181" stroke-linecap="round" stroke-linejoin="round"/>
<path d="M256.084 395.908C259.783 401.347 262.891 405.403 262.891 405.403" stroke="#263238" stroke-width="1.01181" stroke-linecap="round" stroke-linejoin="round"/>
<path d="M231.744 339.801C231.744 339.801 241.125 367.363 245.925 378.448C248.294 383.529 250.965 388.275 253.906 392.63" stroke="#263238" stroke-width="1.01181" stroke-linecap="round" stroke-linejoin="round"/>
<path d="M261.758 334.021C261.758 334.021 271.471 358.378 274.272 372.754C277.073 387.129 277.672 394.609 277.672 394.609" stroke="#263238" stroke-width="1.01181" stroke-linecap="round" stroke-linejoin="round"/>
<path d="M266.89 368.856L257.662 359.956L257.306 380.84" stroke="#263238" stroke-width="1.01181" stroke-linecap="round" stroke-linejoin="round"/>
<path d="M247.204 462.433L244.12 461.704" stroke="#263238" stroke-width="1.01181" stroke-linecap="round" stroke-linejoin="round"/>
<path d="M245.124 456.313L266.89 460.211V467.095L251.348 463.416" stroke="#263238" stroke-width="1.01181" stroke-linecap="round" stroke-linejoin="round"/>
<path d="M275.47 343.395C275.47 343.395 271.876 332.018 270.079 331.715C268.282 331.411 264.291 331.715 264.291 334.143C264.291 336.571 266.485 336.838 266.485 336.838H269.48L270.88 342.229L275.47 343.395Z" fill="white" stroke="#263238" stroke-width="1.01181" stroke-linecap="round" stroke-linejoin="round"/>
<path d="M280.465 364.959L279.064 353.278C279.064 353.278 278.465 343.104 277.445 342.497C276.425 341.889 267.262 342.205 267.262 342.205C267.262 342.205 267.06 354.177 267.861 357.176C268.663 360.175 272.257 361.365 272.257 361.365C272.588 363.233 273.055 365.04 273.649 366.756C274.248 367.97 276.45 369.451 276.45 369.451L277.049 371.88L282.237 366.78L280.465 364.959Z" fill="white" stroke="#263238" stroke-width="1.01181" stroke-linecap="round" stroke-linejoin="round"/>
<path d="M272.281 361.377L273.277 355.682L269.48 355.379" fill="white"/>
<path d="M272.281 361.377L273.277 355.682L269.48 355.379" stroke="#263238" stroke-width="1.01181" stroke-linecap="round" stroke-linejoin="round"/>
<path d="M282.464 364.072L274.272 372.754L277.469 377.841L284.455 368.261L282.464 364.072Z" fill="white" stroke="#263238" stroke-width="1.01181" stroke-linecap="round" stroke-linejoin="round"/>
<path d="M284.455 368.261L275.073 378.74L293.043 419.779C295.169 420.456 297.378 420.246 299.43 419.172C302.83 417.375 306.019 407.2 306.019 405.998C306.019 404.796 284.455 368.261 284.455 368.261Z" fill="#96B9FF" stroke="#263238" stroke-width="1.01181" stroke-linecap="round" stroke-linejoin="round"/>
<path d="M291.643 415.881C291.643 415.881 294.638 407.491 294.84 405.099C295.043 402.707 295.237 397.911 296.241 396.114C297.244 394.317 298.434 393.115 298.831 390.42C299.228 387.724 301.033 388.926 301.259 391.634C301.486 394.342 299.867 397.025 299.867 397.025C299.867 397.025 304.853 394.597 305.655 395.228C306.456 395.859 308.083 396.721 307.654 398.871C307.387 400.189 307.049 401.472 306.642 402.707C306.642 402.707 309.831 408.997 309.831 411.984C309.831 414.97 307.638 419.779 306.035 421.576C304.432 423.373 298.847 425.218 298.847 425.218L291.643 415.881Z" fill="white" stroke="#263238" stroke-width="1.01181" stroke-linecap="round" stroke-linejoin="round"/>
<path d="M234.034 354.25L252.109 410.49L296.241 414.133C297.353 414.537 298.37 415.394 299.18 416.608C299.99 417.823 300.561 419.348 300.83 421.017C301.294 423.757 301.496 426.582 301.429 429.407C301.429 429.407 272.079 434.798 262.891 435.697C253.704 436.595 242.526 438.392 241.125 436.292C239.725 434.191 223.155 382.686 223.155 382.686" fill="#96B9FF"/>
<path d="M234.034 354.25L252.109 410.49L296.241 414.133C297.353 414.537 298.37 415.394 299.18 416.608C299.99 417.823 300.561 419.348 300.83 421.017C301.294 423.757 301.496 426.582 301.429 429.407C301.429 429.407 272.079 434.798 262.891 435.697C253.704 436.595 242.526 438.392 241.125 436.292C239.725 434.191 223.155 382.686 223.155 382.686" stroke="#263238" stroke-width="1.01181" stroke-linecap="round" stroke-linejoin="round"/>
<path d="M498.182 519.644H502.796V586.327H498.182V519.644Z" fill="#263238" stroke="#263238" stroke-width="1.01181" stroke-linecap="round" stroke-linejoin="round"/>
<path d="M526.296 455.756L534.432 457.183L529.268 523.414L521.132 521.987L526.296 455.756Z" fill="#263238" stroke="#263238" stroke-width="1.01181" stroke-linecap="round" stroke-linejoin="round"/>
<path d="M494.628 589.047V577.803H506.341V589.144L553.192 617.349V630.656H549.994V620.542L500.318 603.58L451.954 620.542V630.656H448.846V617.349L494.628 589.047Z" fill="#8C8C8C" stroke="#263238" stroke-width="1.01181" stroke-linecap="round" stroke-linejoin="round"/>
<path d="M488.954 519.644H512.023V540.941H488.954V519.644Z" fill="#263238" stroke="#263238" stroke-width="1.01181" stroke-linecap="round" stroke-linejoin="round"/>
<path d="M553.192 631.191C553.192 629.716 553.483 628.275 554.03 627.049C554.576 625.823 555.352 624.867 556.26 624.303C557.168 623.739 558.168 623.591 559.132 623.879C560.096 624.167 560.981 624.877 561.676 625.919C562.371 626.962 562.845 628.29 563.037 629.736C563.228 631.182 563.13 632.681 562.754 634.044C562.378 635.406 561.741 636.57 560.923 637.389C560.106 638.209 559.145 638.646 558.162 638.646C556.844 638.646 555.58 637.86 554.648 636.462C553.716 635.064 553.192 633.168 553.192 631.191Z" fill="#263238" stroke="#263238" stroke-width="1.01181" stroke-linecap="round" stroke-linejoin="round"/>
<path d="M556.033 631.191C556.033 630.559 556.158 629.942 556.392 629.417C556.626 628.891 556.958 628.482 557.347 628.24C557.736 627.999 558.164 627.935 558.577 628.059C558.99 628.182 559.37 628.486 559.667 628.933C559.965 629.379 560.168 629.948 560.25 630.568C560.332 631.187 560.29 631.829 560.129 632.413C559.968 632.996 559.695 633.495 559.345 633.846C558.995 634.197 558.583 634.384 558.162 634.384C557.597 634.384 557.056 634.047 556.657 633.449C556.257 632.85 556.033 632.038 556.033 631.191Z" fill="white" stroke="#263238" stroke-width="1.01181" stroke-linecap="round" stroke-linejoin="round"/>
<path d="M438.582 631.191C438.582 629.716 438.873 628.275 439.42 627.049C439.966 625.823 440.742 624.867 441.65 624.303C442.558 623.739 443.558 623.591 444.522 623.879C445.486 624.167 446.371 624.877 447.066 625.919C447.761 626.962 448.235 628.29 448.427 629.736C448.618 631.182 448.52 632.681 448.144 634.044C447.768 635.406 447.131 636.57 446.313 637.389C445.496 638.209 444.535 638.646 443.552 638.646C442.234 638.646 440.97 637.86 440.038 636.462C439.106 635.064 438.582 633.168 438.582 631.191Z" fill="#263238" stroke="#263238" stroke-width="1.01181" stroke-linecap="round" stroke-linejoin="round"/>
<path d="M443.52 634.384C442.344 634.384 441.391 632.954 441.391 631.191C441.391 629.427 442.344 627.997 443.52 627.997C444.695 627.997 445.648 629.427 445.648 631.191C445.648 632.954 444.695 634.384 443.52 634.384Z" fill="white" stroke="#263238" stroke-width="1.01181" stroke-linecap="round" stroke-linejoin="round"/>
<path d="M498.36 631.045H502.261L504.212 591.111H496.401L498.36 631.045Z" fill="#8C8C8C" stroke="#263238" stroke-width="1.01181" stroke-linecap="round" stroke-linejoin="round"/>
<path d="M498.538 622.522H502.44V639.022H498.538V622.522Z" fill="#263238" stroke="#263238" stroke-width="1.01181" stroke-linecap="round" stroke-linejoin="round"/>
<path d="M531.215 488.987C533.492 489.317 535.789 488.97 537.977 487.968C540.164 486.966 542.198 485.327 543.963 483.145C545.728 480.964 547.189 478.282 548.263 475.253C549.337 472.224 550.002 468.907 550.221 465.492L555.669 380.5C555.889 377.085 555.658 373.639 554.99 370.358C554.322 367.077 553.229 364.026 551.775 361.378C550.32 358.731 548.532 356.539 546.513 354.929C544.494 353.318 542.282 352.32 540.006 351.991C535.408 351.331 530.823 353.437 527.26 357.844C523.696 362.252 521.445 368.601 521 375.498L515.552 460.49C515.11 467.384 516.512 474.26 519.45 479.604C522.387 484.948 526.619 488.323 531.215 488.987Z" fill="#8C8C8C" stroke="#263238" stroke-width="1.01181" stroke-linecap="round" stroke-linejoin="round"/>
<path d="M527.087 488.392C531.684 489.055 536.269 486.952 539.833 482.547C543.397 478.141 545.649 471.793 546.093 464.897L551.541 379.905C551.969 373.021 550.561 366.163 547.626 360.833C544.69 355.504 540.466 352.136 535.878 351.469C531.28 350.806 526.694 352.91 523.13 357.318C519.565 361.727 517.315 368.078 516.872 374.975L511.433 459.883C510.99 466.777 512.391 473.652 515.326 478.997C518.262 484.343 522.492 487.722 527.087 488.392Z" fill="#8C8C8C" stroke="#263238" stroke-width="1.01181" stroke-linecap="round" stroke-linejoin="round"/>
<path d="M448.506 526.31L532.551 529.516C533.002 529.537 533.451 529.424 533.873 529.185C534.294 528.946 534.681 528.584 535.009 528.12C535.338 527.657 535.602 527.101 535.787 526.484C535.972 525.867 536.075 525.202 536.088 524.526L536.525 505.026C536.554 503.662 536.22 502.338 535.598 501.343C534.976 500.348 534.116 499.764 533.207 499.72L449.105 496.514C448.654 496.492 448.205 496.603 447.784 496.841C447.362 497.079 446.976 497.44 446.647 497.902C446.318 498.365 446.054 498.92 445.869 499.536C445.683 500.152 445.581 500.817 445.567 501.493L445.155 521.004C445.141 521.684 445.216 522.36 445.377 522.995C445.539 523.63 445.782 524.211 446.094 524.704C446.405 525.197 446.779 525.593 447.193 525.869C447.607 526.145 448.053 526.295 448.506 526.31Z" fill="#8C8C8C" stroke="#263238" stroke-width="1.01181" stroke-linecap="round" stroke-linejoin="round"/>
<path d="M485.887 497.472L533.167 499.713C535.062 499.803 536.549 502.18 536.489 505.021L536.078 524.523C536.019 527.365 534.434 529.596 532.54 529.506L485.259 527.265C483.364 527.175 481.877 524.799 481.937 521.957L482.348 502.455C482.408 499.613 483.992 497.382 485.887 497.472Z" fill="#8C8C8C" stroke="#263238" stroke-width="1.01181" stroke-linecap="round" stroke-linejoin="round"/>
<path d="M437.773 486.595C437.773 486.595 437.052 507.43 435.142 526.092C433.232 544.754 430.067 601.371 430.067 601.371C429.071 607.056 427.716 612.585 426.019 617.883C424.887 621.401 423.438 624.669 421.713 627.597C421.713 627.597 415.488 636.934 415.731 638.366C415.974 639.799 419.876 639.653 423.704 638.573C427.533 637.492 428.318 636.144 430.471 633.971C432.624 631.798 437.522 629.017 439.675 627.9C441.828 626.783 442.54 623.966 441.82 620.737C441.099 617.507 438.703 609.967 438.703 605.304C438.703 600.642 440.622 578.52 445.867 563.792C451.112 549.064 454.245 523.578 454.245 523.578L437.773 486.595Z" fill="white" stroke="#263238" stroke-width="1.01181" stroke-linecap="round" stroke-linejoin="round"/>
<path d="M436.502 621.817C438.023 620.045 439.448 618.175 440.662 616.414C441.116 618.151 441.536 619.68 441.771 620.737C442.492 623.967 441.771 626.808 439.626 627.9C437.481 628.993 432.576 631.786 430.423 633.971C428.27 636.157 427.484 637.492 423.656 638.573C419.827 639.654 415.917 639.787 415.683 638.367C415.448 636.946 421.664 627.597 421.664 627.597L424.773 629.758C424.773 629.758 432.195 626.844 436.502 621.817Z" fill="#F49233" stroke="#263238" stroke-width="1.01181" stroke-linecap="round" stroke-linejoin="round"/>
<path d="M529.596 443.807C529.596 443.807 531.75 456.459 530.576 464.448C529.402 472.437 521.356 490.917 507.434 495.337C493.511 499.756 458.519 498.311 458.519 498.311C458.519 498.311 466.953 517.532 470.094 540.674C472.166 555.997 478.52 577.439 479.5 580.681C480.479 583.923 492.054 589.8 491.641 592.446C491.228 595.093 489.877 611.558 486.938 618.333C484 625.108 479.095 628.046 477.136 628.92C475.177 629.795 474.78 629.794 474.78 626.856C474.78 623.918 476.157 619.802 476.157 617.143C476.157 614.484 476.351 596.502 475.566 594.195C474.78 591.888 449.105 531.167 445.187 521.211C441.269 511.255 435.182 491.791 433.418 488.562C431.653 485.332 429.5 480.912 431.264 475.327C433.029 469.742 473.542 451.044 473.542 451.044L475.671 439.74L495.907 437.979L529.596 443.807Z" fill="white" stroke="#263238" stroke-width="1.01181" stroke-linecap="round" stroke-linejoin="round"/>
<path d="M473.542 451.032L475.671 439.728L495.907 437.967L529.637 443.844C529.637 443.844 531.839 456.507 530.616 464.485C528.674 477.1 521.397 490.954 507.474 495.373C493.552 499.793 458.559 498.348 458.559 498.348C458.559 498.348 455.24 473.47 448.757 463.768C456.544 459.786 473.542 451.032 473.542 451.032Z" fill="#263238" stroke="#263238" stroke-width="1.01181" stroke-linecap="round" stroke-linejoin="round"/>
<path d="M458.519 498.263C453.849 496.408 449.317 493.845 444.993 490.614Z" fill="white"/>
<path d="M458.519 498.263C453.849 496.408 449.317 493.845 444.993 490.614" stroke="#263238" stroke-width="1.01181" stroke-linecap="round" stroke-linejoin="round"/>
<path d="M484.996 606.519C486.388 601.662 486.299 591.949 486.121 586.752C489.084 588.95 491.86 591.074 491.658 592.398C491.269 595.045 489.893 611.509 486.955 618.284C484.016 625.059 479.111 627.997 477.152 628.872C475.193 629.746 474.797 629.746 474.797 626.807C474.797 623.869 476.165 619.765 476.173 617.094C478.223 616.702 480.254 616.106 482.252 615.309C482.252 615.309 483.037 613.282 484.996 606.519Z" fill="#F49233" stroke="#263238" stroke-width="1.01181" stroke-linecap="round" stroke-linejoin="round"/>
<path d="M487.829 327.331L493.908 331.156C493.908 331.156 489.003 400.036 489.197 409.75C489.391 419.463 489.788 438.89 489.788 438.89C489.788 438.89 481.353 442.714 475.671 439.776L476.059 406.544C476.059 406.544 471.939 374.769 473.51 364.473C475.08 354.177 479.985 335.94 479.985 335.94C479.985 335.94 482.292 327.623 487.829 327.331Z" fill="white" stroke="#263238" stroke-width="1.01181" stroke-linecap="round" stroke-linejoin="round"/>
<path d="M489.577 357.042L483.684 343.577L476.44 359.361C476.44 359.361 479.572 337.3 479.969 335.831C480.908 333.062 482.329 330.725 484.081 329.068C486.437 326.712 489.189 326.639 490.751 326.421C492.313 326.202 493.892 331.132 493.892 331.132L489.577 357.042Z" fill="white" stroke="#263238" stroke-width="1.01181" stroke-linecap="round" stroke-linejoin="round"/>
<path d="M492.329 326.251C492.329 326.251 512.04 332.722 513.731 334.568C515.423 336.413 516.16 342.423 515.739 344.73C515.318 347.037 510.809 396.94 510.809 396.94L533.474 446.6C533.474 446.6 526.075 455.84 519.147 457.685C512.218 459.531 497.437 456.762 492.2 453.533L486.963 450.303C486.963 450.303 484.534 390.007 487.117 366.209C489.699 342.411 492.329 326.251 492.329 326.251Z" fill="#F49233" stroke="#263238" stroke-width="1.01181" stroke-linecap="round" stroke-linejoin="round"/>
<path d="M431.807 402.938L424.109 397.863C424.109 397.863 421.794 390.238 421.486 389.546C421.179 388.853 418.564 387.7 417.334 386.073C416.104 384.446 414.404 381.69 413.942 381.459C413.481 381.228 412.712 383.305 413.942 386.073C414.875 388.035 415.962 389.821 417.18 391.391L409.628 387.239C409.628 387.239 406.706 379.844 405.937 383.074C405.168 386.304 409.175 396.248 410.089 399.478C411.004 402.707 411.943 404.334 413.635 404.796C415.326 405.257 420.564 406.641 421.64 406.872C422.717 407.103 429.346 412.87 429.346 412.87L431.807 402.938Z" fill="white" stroke="#263238" stroke-width="1.01181" stroke-linecap="round" stroke-linejoin="round"/>
<path d="M421.122 400.631C419.754 398.895 418.176 397.171 417.334 397.171C415.634 397.171 411.943 397.632 411.943 397.632C411.943 397.632 409.782 390.238 408.705 389.133C407.629 388.028 406.706 389.594 407.629 391.901" fill="white"/>
<path d="M421.122 400.631C419.754 398.895 418.176 397.171 417.334 397.171C415.634 397.171 411.943 397.632 411.943 397.632C411.943 397.632 409.782 390.238 408.705 389.133C407.629 388.028 406.706 389.594 407.629 391.901" stroke="#263238" stroke-width="1.01181" stroke-linecap="round" stroke-linejoin="round"/>
<path d="M482.009 331.8C482.009 331.8 477.079 363.902 477.233 375.911C477.387 387.919 479.864 393.965 479.394 398.094C478.925 402.222 477.856 450.764 477.856 450.764L473.542 450.995C473.542 450.995 474.619 432.515 474.465 429.043C474.311 425.57 472.773 411.717 472.773 411.717C472.773 411.717 465.067 434.592 463.991 435.745C462.914 436.899 427.185 414.036 427.185 414.036L429.808 400.862L457.062 409.179C457.062 409.179 462.453 382.382 463.222 376.603C463.991 370.823 464.606 350.51 466.767 345.423C468.928 340.335 482.009 331.8 482.009 331.8Z" fill="#F49233" stroke="#263238" stroke-width="1.01181" stroke-linecap="round" stroke-linejoin="round"/>
<path d="M472.773 411.717C472.773 411.717 471.85 405.949 470.304 390.699C469.375 381.595 469.324 372.337 470.151 363.21" stroke="#263238" stroke-width="1.01181" stroke-linecap="round" stroke-linejoin="round"/>
<path d="M474.457 349.781C473.72 358.099 473.17 368.371 474.157 374.065C475.284 380.529 476.726 386.859 478.472 393.006" stroke="#263238" stroke-width="1.01181" stroke-linecap="round" stroke-linejoin="round"/>
<path d="M475.817 336.899C475.817 336.899 475.355 340.384 474.845 345.398" stroke="#263238" stroke-width="1.01181" stroke-linecap="round" stroke-linejoin="round"/>
<path d="M490.549 381.824C488.549 389.254 486.785 396.503 486.785 396.503" stroke="#263238" stroke-width="1.01181" stroke-linecap="round" stroke-linejoin="round"/>
<path d="M499.873 329.942C499.873 329.942 496.336 362.518 493.56 371.297C492.993 373.081 492.378 375.194 491.755 377.367" stroke="#263238" stroke-width="1.01181" stroke-linecap="round" stroke-linejoin="round"/>
<path d="M456.139 396.017L450.133 393.467C450.133 393.467 446.28 386.073 445.357 384.228C444.434 382.382 442.281 382.382 440.735 380.998C439.189 379.614 437.198 374.526 436.429 375.449C435.66 376.372 436.429 380.536 437.238 381.69C438.27 382.941 439.351 384.097 440.476 385.15C441.091 385.842 433.24 383.074 433.24 383.074C433.24 383.074 428.156 376.372 427.849 378.217C427.541 380.063 430.164 386.534 430.164 386.534C430.164 386.534 433.855 391.84 435.709 394.147C437.562 396.454 442.022 397.389 443.253 397.79C444.483 398.191 446.636 398.713 446.636 398.713L455.88 403.788L456.139 396.017Z" fill="white" stroke="#263238" stroke-width="1.01181" stroke-linecap="round" stroke-linejoin="round"/>
<path d="M431.345 387.894C431.345 387.894 434.583 390.201 436.275 391.355Z" fill="white"/>
<path d="M431.345 387.894C431.345 387.894 434.583 390.201 436.275 391.355" stroke="#263238" stroke-width="1.01181" stroke-linecap="round" stroke-linejoin="round"/>
<path d="M440.427 385.15L443.204 386.073" stroke="#263238" stroke-width="1.01181" stroke-linecap="round" stroke-linejoin="round"/>
<path d="M510.348 332.722C510.348 332.722 519.43 337.336 520.822 340.809C522.214 344.281 517.276 372.681 513.577 388.392C509.878 404.104 500.027 430.427 498.797 431.35C497.566 432.272 465.375 415.189 458.009 411.716C450.643 408.244 449.388 406.411 449.388 406.411L452.626 393.929L489.577 403.861L500.909 350.51" fill="#F49233"/>
<path d="M510.348 332.722C510.348 332.722 519.43 337.336 520.822 340.809C522.214 344.281 517.276 372.681 513.577 388.392C509.878 404.104 500.027 430.427 498.797 431.35C497.566 432.272 465.375 415.189 458.009 411.716C450.643 408.244 449.388 406.411 449.388 406.411L452.626 393.929L489.577 403.861L500.909 350.51" stroke="#263238" stroke-width="1.01181" stroke-linecap="round" stroke-linejoin="round"/>
<path d="M465.723 262.373C465.723 262.373 462.129 266.015 463.95 269.937C465.771 273.859 469.616 274.126 469.616 274.126L472.975 266.185C472.975 266.185 468.977 259.07 465.723 262.373Z" fill="#263238" stroke="#263238" stroke-width="1.01181" stroke-linecap="round" stroke-linejoin="round"/>
<path d="M469.495 267.108C469.495 267.108 463.982 286.729 464.29 288.417C464.597 290.105 467.163 292.74 465.998 295.301C464.832 297.863 461.416 302.987 461.505 303.704C461.594 304.42 465.771 308.075 465.771 308.075C465.771 308.075 468.693 323.859 469.883 326.166C471.073 328.473 481.118 325.668 481.118 325.668L483.239 343.346L495.17 326.664L499.63 320.35C499.63 320.35 503.629 293.419 495.146 277.234C486.663 261.05 469.495 267.108 469.495 267.108Z" fill="white" stroke="#263238" stroke-width="1.01181" stroke-linecap="round" stroke-linejoin="round"/>
<path d="M470.256 294.755C470.256 296.406 470.709 297.742 471.219 297.73C471.729 297.717 472.125 296.358 472.101 294.694C472.077 293.031 471.656 291.707 471.146 291.719C470.636 291.732 470.239 293.091 470.256 294.755Z" fill="#263238"/>
<path d="M470.232 312.02C471.185 311.953 472.12 311.595 472.978 310.969C473.837 310.343 474.601 309.461 475.226 308.378C475.226 308.378 475.525 315.481 474.052 315.894C472.579 316.307 470.232 312.02 470.232 312.02Z" fill="#263238" stroke="#263238" stroke-width="1.01181" stroke-linecap="round" stroke-linejoin="round"/>
<path d="M473.332 288.174C473.332 288.174 470.264 284.277 467.52 288.842" stroke="#263238" stroke-width="1.01181" stroke-linecap="round" stroke-linejoin="round"/>
<path d="M481.119 325.668L486.097 323.883L482.349 334.313L481.119 325.668Z" fill="#263238" stroke="#263238" stroke-width="1.01181" stroke-linecap="round" stroke-linejoin="round"/>
<path d="M469.495 267.108C469.495 267.108 470.58 272.22 475.882 278.898C481.184 285.576 485.927 289.825 485.911 291.671C485.895 293.517 485.101 295.241 486.17 295.69C487.041 295.857 487.925 295.633 488.711 295.046C488.711 295.046 491.285 306.059 491.674 313.83C491.832 318.958 491.312 324.083 490.144 328.91C490.144 328.91 501.565 329.833 508.154 322.329C514.743 314.825 516.597 306.326 515.868 298.956C515.14 291.586 513.052 268.31 502.917 256.909C492.783 245.508 478.261 245.982 473.332 250.632C468.402 255.282 464.833 258.694 465.739 262.373C466.646 266.052 469.495 267.108 469.495 267.108Z" fill="#263238" stroke="#263238" stroke-width="1.01181" stroke-linecap="round" stroke-linejoin="round"/>
<path d="M493.43 499.003C493.733 499.006 494.031 498.906 494.305 498.712C494.882 498.239 495.325 497.466 495.55 496.539C495.775 495.611 495.767 494.592 495.527 493.673C491.868 478.69 487.675 451.966 491.973 443.989C492.977 442.775 499.024 440.347 531.596 445.398L533.968 445.762C536.242 446.053 538.185 450.983 538.687 452.683C538.794 453.117 538.961 453.511 539.178 453.84C539.396 454.168 539.657 454.424 539.945 454.588C540.234 454.753 540.542 454.823 540.85 454.793C541.158 454.764 541.458 454.636 541.73 454.419C542.287 453.883 542.697 453.064 542.885 452.112C543.072 451.16 543.024 450.138 542.75 449.234C542.434 448.166 539.512 438.744 534.316 438.064L532.009 437.712C497.299 432.297 490.646 435.028 488.622 438.768C480.981 452.95 490.241 492.192 491.334 496.624C491.476 497.297 491.754 497.888 492.13 498.314C492.505 498.74 492.96 498.981 493.43 499.003Z" fill="white" stroke="#263238" stroke-width="1.01181" stroke-linecap="round" stroke-linejoin="round"/>
<path d="M350.336 384.908H403.525L415.829 447.426H362.64L350.336 384.908Z" fill="#D9D9D9" stroke="#263238" stroke-width="1.01181" stroke-linecap="round" stroke-linejoin="round"/>
<path d="M454.739 444.002L455.411 447.426H362.64L361.96 444.002H454.739Z" fill="#D9D9D9" stroke="#263238" stroke-width="1.01181" stroke-linecap="round" stroke-linejoin="round"/>
<path d="M415.06 444.002L415.731 447.426H362.64L361.96 444.002H415.06Z" fill="#263238" stroke="#263238" stroke-width="1.01181" stroke-linecap="round" stroke-linejoin="round"/>
<path d="M363.401 456.811H372.402V637.335H363.401V456.811Z" fill="white" stroke="#263238" stroke-width="1.01181" stroke-linecap="round" stroke-linejoin="round"/>
<path d="M363.401 456.811H372.402V486.631H363.401V456.811Z" fill="#263238" stroke="#263238" stroke-width="1.01181" stroke-linecap="round" stroke-linejoin="round"/>
<path d="M254.052 447.462H482.56V457.491H254.052V447.462Z" fill="white" stroke="#263238" stroke-width="1.01181" stroke-linecap="round" stroke-linejoin="round"/>
<path d="M320.937 638.804H415.643C406.273 632.194 396.047 628.77 385.693 628.775H350.781C340.427 628.767 330.2 632.192 320.832 638.804H320.937Z" fill="white" stroke="#263238" stroke-width="1.01181" stroke-linecap="round" stroke-linejoin="round"/>
<path d="M368.193 282.463H394.298" stroke="black" stroke-width="4.35195" stroke-linecap="round" stroke-linejoin="round"/>
<path d="M368.193 274.305H394.298" stroke="black" stroke-width="4.35195" stroke-linecap="round" stroke-linejoin="round"/>
<path d="M375.535 274.305C378.347 274.305 381.045 275.422 383.034 277.411C385.022 279.4 386.14 282.097 386.14 284.91C386.14 287.723 385.022 290.42 383.034 292.409C381.045 294.398 378.347 295.515 375.535 295.515H368.193L386.14 311.831" stroke="black" stroke-width="4.35195" stroke-linecap="round" stroke-linejoin="round"/>
<circle cx="406.828" cy="391.958" r="344.348" stroke="#F49233" stroke-width="5.43994"/>
<path fill-rule="evenodd" clip-rule="evenodd" d="M620.999 20.7681C685.362 67.8795 681.215 167.455 671.684 249.736C663.543 320.011 610.81 371.059 573.296 432.563C518.692 522.087 506.227 660.538 406.142 685.089C305.915 709.674 218.477 615.785 162.735 533.274C117.391 466.155 126.512 377.544 142.505 294.846C154.681 231.889 194.303 180.994 239.869 134.425C282.501 90.8537 331.606 59.9956 389.059 42.8624C467.289 19.5335 557.786 -25.5024 620.999 20.7681Z" fill="#D8B08C" style="mix-blend-mode:overlay"/>
</svg>
